<?xml version="1.0" encoding="UTF-8" standalone="no"?>
<!DOCTYPE svg PUBLIC "-//W3C//DTD SVG 1.1//EN"
 "http://www.w3.org/Graphics/SVG/1.1/DTD/svg11.dtd">
<!-- Generated by graphviz version 7.0.2 (20221119.0110)
 -->
<!-- Title: controllers_diagram Pages: 1 -->
<svg width="445pt" height="507pt"
 viewBox="0.00 0.00 445.00 507.00" xmlns="http://www.w3.org/2000/svg" xmlns:xlink="http://www.w3.org/1999/xlink">
<g id="graph0" class="graph" transform="scale(1 1) rotate(0) translate(4 503)">
<title>controllers_diagram</title>
<polygon fill="none" stroke="none" points="-4,4 -4,-503 441,-503 441,4 -4,4"/>
<!-- _diagram_info -->
<g id="node1" class="node">
<title>_diagram_info</title>
<text text-anchor="start" x="173" y="-213.6" font-family="Times,serif" font-size="13.00">Controllers diagram</text>
<text text-anchor="start" x="173" y="-199.6" font-family="Times,serif" font-size="13.00">Date: Nov 29 2022 &#45; 10:26</text>
<text text-anchor="start" x="173" y="-185.6" font-family="Times,serif" font-size="13.00">Migration version: 20221121073745</text>
<text text-anchor="start" x="173" y="-171.6" font-family="Times,serif" font-size="13.00">Generated by RailRoady 1.6.0</text>
<text text-anchor="start" x="173" y="-157.6" font-family="Times,serif" font-size="13.00">http://railroady.prestonlee.com</text>
</g>
<!-- ApplicationController -->
<g id="node2" class="node">
<title>ApplicationController</title>
<path fill="none" stroke="black" d="M177,-255.5C177,-255.5 289,-255.5 289,-255.5 295,-255.5 301,-261.5 301,-267.5 301,-267.5 301,-352.5 301,-352.5 301,-358.5 295,-364.5 289,-364.5 289,-364.5 177,-364.5 177,-364.5 171,-364.5 165,-358.5 165,-352.5 165,-352.5 165,-267.5 165,-267.5 165,-261.5 171,-255.5 177,-255.5"/>
<text text-anchor="middle" x="233" y="-349.3" font-family="Times,serif" font-size="14.00">ApplicationController</text>
<polyline fill="none" stroke="black" points="165,-341.5 301,-341.5"/>
<polyline fill="none" stroke="black" points="165,-317.5 301,-317.5"/>
<polyline fill="none" stroke="black" points="165,-293.5 301,-293.5"/>
<text text-anchor="start" x="173" y="-278.3" font-family="Times,serif" font-size="14.00">_layout</text>
<text text-anchor="start" x="173" y="-263.3" font-family="Times,serif" font-size="14.00">_layout_from_proc</text>
</g>
<!-- CommentsController -->
<g id="node3" class="node">
<title>CommentsController</title>
<path fill="none" stroke="black" d="M12,-345.5C12,-345.5 120,-345.5 120,-345.5 126,-345.5 132,-351.5 132,-357.5 132,-357.5 132,-456.5 132,-456.5 132,-462.5 126,-468.5 120,-468.5 120,-468.5 12,-468.5 12,-468.5 6,-468.5 0,-462.5 0,-456.5 0,-456.5 0,-357.5 0,-357.5 0,-351.5 6,-345.5 12,-345.5"/>
<text text-anchor="middle" x="66" y="-453.3" font-family="Times,serif" font-size="14.00">CommentsController</text>
<polyline fill="none" stroke="black" points="0,-445.5 132,-445.5"/>
<text text-anchor="start" x="8" y="-430.3" font-family="Times,serif" font-size="14.00">create</text>
<polyline fill="none" stroke="black" points="0,-422.5 132,-422.5"/>
<polyline fill="none" stroke="black" points="0,-398.5 132,-398.5"/>
<text text-anchor="start" x="8" y="-383.3" font-family="Times,serif" font-size="14.00">_layout</text>
<text text-anchor="start" x="8" y="-368.3" font-family="Times,serif" font-size="14.00">_layout_from_proc</text>
<text text-anchor="start" x="8" y="-353.3" font-family="Times,serif" font-size="14.00">create_params</text>
</g>
<!-- CoursesController -->
<g id="node4" class="node">
<title>CoursesController</title>
<path fill="none" stroke="black" d="M267,-390.5C267,-390.5 365,-390.5 365,-390.5 371,-390.5 377,-396.5 377,-402.5 377,-402.5 377,-486.5 377,-486.5 377,-492.5 371,-498.5 365,-498.5 365,-498.5 267,-498.5 267,-498.5 261,-498.5 255,-492.5 255,-486.5 255,-486.5 255,-402.5 255,-402.5 255,-396.5 261,-390.5 267,-390.5"/>
<text text-anchor="middle" x="316" y="-483.3" font-family="Times,serif" font-size="14.00">CoursesController</text>
<polyline fill="none" stroke="black" points="255,-475.5 377,-475.5"/>
<text text-anchor="start" x="263" y="-460.3" font-family="Times,serif" font-size="14.00">index</text>
<polyline fill="none" stroke="black" points="255,-452.5 377,-452.5"/>
<polyline fill="none" stroke="black" points="255,-428.5 377,-428.5"/>
<text text-anchor="start" x="263" y="-413.3" font-family="Times,serif" font-size="14.00">_layout</text>
<text text-anchor="start" x="263" y="-398.3" font-family="Times,serif" font-size="14.00">_layout_from_proc</text>
</g>
<!-- LandingController -->
<g id="node5" class="node">
<title>LandingController</title>
<path fill="none" stroke="black" d="M177,-15.5C177,-15.5 275,-15.5 275,-15.5 281,-15.5 287,-21.5 287,-27.5 287,-27.5 287,-111.5 287,-111.5 287,-117.5 281,-123.5 275,-123.5 275,-123.5 177,-123.5 177,-123.5 171,-123.5 165,-117.5 165,-111.5 165,-111.5 165,-27.5 165,-27.5 165,-21.5 171,-15.5 177,-15.5"/>
<text text-anchor="middle" x="226" y="-108.3" font-family="Times,serif" font-size="14.00">LandingController</text>
<polyline fill="none" stroke="black" points="165,-100.5 287,-100.5"/>
<text text-anchor="start" x="173" y="-85.3" font-family="Times,serif" font-size="14.00">index</text>
<polyline fill="none" stroke="black" points="165,-77.5 287,-77.5"/>
<polyline fill="none" stroke="black" points="165,-53.5 287,-53.5"/>
<text text-anchor="start" x="173" y="-38.3" font-family="Times,serif" font-size="14.00">_layout</text>
<text text-anchor="start" x="173" y="-23.3" font-family="Times,serif" font-size="14.00">_layout_from_proc</text>
</g>
<!-- PostsController -->
<g id="node6" class="node">
<title>PostsController</title>
<path fill="none" stroke="black" d="M27,-120.5C27,-120.5 125,-120.5 125,-120.5 131,-120.5 137,-126.5 137,-132.5 137,-132.5 137,-306.5 137,-306.5 137,-312.5 131,-318.5 125,-318.5 125,-318.5 27,-318.5 27,-318.5 21,-318.5 15,-312.5 15,-306.5 15,-306.5 15,-132.5 15,-132.5 15,-126.5 21,-120.5 27,-120.5"/>
<text text-anchor="middle" x="76" y="-303.3" font-family="Times,serif" font-size="14.00">PostsController</text>
<polyline fill="none" stroke="black" points="15,-295.5 137,-295.5"/>
<text text-anchor="start" x="23" y="-280.3" font-family="Times,serif" font-size="14.00">all</text>
<text text-anchor="start" x="23" y="-265.3" font-family="Times,serif" font-size="14.00">create</text>
<text text-anchor="start" x="23" y="-250.3" font-family="Times,serif" font-size="14.00">index</text>
<text text-anchor="start" x="23" y="-235.3" font-family="Times,serif" font-size="14.00">new</text>
<text text-anchor="start" x="23" y="-220.3" font-family="Times,serif" font-size="14.00">show</text>
<polyline fill="none" stroke="black" points="15,-212.5 137,-212.5"/>
<polyline fill="none" stroke="black" points="15,-188.5 137,-188.5"/>
<text text-anchor="start" x="23" y="-173.3" font-family="Times,serif" font-size="14.00">_layout</text>
<text text-anchor="start" x="23" y="-158.3" font-family="Times,serif" font-size="14.00">_layout_from_proc</text>
<text text-anchor="start" x="23" y="-143.3" font-family="Times,serif" font-size="14.00">create_params</text>
<text text-anchor="start" x="23" y="-128.3" font-family="Times,serif" font-size="14.00">record_not_found</text>
</g>
<!-- RatingsController -->
<g id="node7" class="node">
<title>RatingsController</title>
<path fill="none" stroke="black" d="M327,-0.5C327,-0.5 425,-0.5 425,-0.5 431,-0.5 437,-6.5 437,-12.5 437,-12.5 437,-97.5 437,-97.5 437,-103.5 431,-109.5 425,-109.5 425,-109.5 327,-109.5 327,-109.5 321,-109.5 315,-103.5 315,-97.5 315,-97.5 315,-12.5 315,-12.5 315,-6.5 321,-0.5 327,-0.5"/>
<text text-anchor="middle" x="376" y="-94.3" font-family="Times,serif" font-size="14.00">RatingsController</text>
<polyline fill="none" stroke="black" points="315,-86.5 437,-86.5"/>
<polyline fill="none" stroke="black" points="315,-62.5 437,-62.5"/>
<polyline fill="none" stroke="black" points="315,-38.5 437,-38.5"/>
<text text-anchor="start" x="323" y="-23.3" font-family="Times,serif" font-size="14.00">_layout</text>
<text text-anchor="start" x="323" y="-8.3" font-family="Times,serif" font-size="14.00">_layout_from_proc</text>
</g>
</g>
</svg>
