<?xml version="1.0" encoding="UTF-8" standalone="no"?>
<!DOCTYPE svg PUBLIC "-//W3C//DTD SVG 1.1//EN"
 "http://www.w3.org/Graphics/SVG/1.1/DTD/svg11.dtd">
<!-- Generated by graphviz version 7.0.2 (20221119.0110)
 -->
<!-- Title: controllers_diagram Pages: 1 -->
<svg width="545pt" height="525pt"
 viewBox="0.00 0.00 545.00 525.00" xmlns="http://www.w3.org/2000/svg" xmlns:xlink="http://www.w3.org/1999/xlink">
<g id="graph0" class="graph" transform="scale(1 1) rotate(0) translate(4 521)">
<title>controllers_diagram</title>
<polygon fill="none" stroke="none" points="-4,4 -4,-521 541,-521 541,4 -4,4"/>
<!-- _diagram_info -->
<g id="node1" class="node">
<title>_diagram_info</title>
<text text-anchor="start" x="331" y="-437.6" font-family="Times,serif" font-size="13.00">Controllers diagram</text>
<text text-anchor="start" x="331" y="-423.6" font-family="Times,serif" font-size="13.00">Date: Dec 09 2022 &#45; 16:21</text>
<text text-anchor="start" x="331" y="-409.6" font-family="Times,serif" font-size="13.00">Migration version: 20221209145650</text>
<text text-anchor="start" x="331" y="-395.6" font-family="Times,serif" font-size="13.00">Generated by RailRoady 1.6.0</text>
<text text-anchor="start" x="331" y="-381.6" font-family="Times,serif" font-size="13.00">http://railroady.prestonlee.com</text>
</g>
<!-- ApplicationController -->
<g id="node2" class="node">
<title>ApplicationController</title>
<path fill="none" stroke="black" d="M165,-408.5C165,-408.5 277,-408.5 277,-408.5 283,-408.5 289,-414.5 289,-420.5 289,-420.5 289,-504.5 289,-504.5 289,-510.5 283,-516.5 277,-516.5 277,-516.5 165,-516.5 165,-516.5 159,-516.5 153,-510.5 153,-504.5 153,-504.5 153,-420.5 153,-420.5 153,-414.5 159,-408.5 165,-408.5"/>
<text text-anchor="middle" x="221" y="-501.3" font-family="Times,serif" font-size="14.00">ApplicationController</text>
<polyline fill="none" stroke="black" points="153,-493.5 289,-493.5"/>
<text text-anchor="start" x="161" y="-478.3" font-family="Times,serif" font-size="14.00">current_controller?</text>
<polyline fill="none" stroke="black" points="153,-470.5 289,-470.5"/>
<polyline fill="none" stroke="black" points="153,-446.5 289,-446.5"/>
<text text-anchor="start" x="161" y="-431.3" font-family="Times,serif" font-size="14.00">_layout</text>
<text text-anchor="start" x="161" y="-416.3" font-family="Times,serif" font-size="14.00">_layout_from_proc</text>
</g>
<!-- CommentsController -->
<g id="node3" class="node">
<title>CommentsController</title>
<path fill="none" stroke="black" d="M267,-136.5C267,-136.5 375,-136.5 375,-136.5 381,-136.5 387,-142.5 387,-148.5 387,-148.5 387,-322.5 387,-322.5 387,-328.5 381,-334.5 375,-334.5 375,-334.5 267,-334.5 267,-334.5 261,-334.5 255,-328.5 255,-322.5 255,-322.5 255,-148.5 255,-148.5 255,-142.5 261,-136.5 267,-136.5"/>
<text text-anchor="middle" x="321" y="-319.3" font-family="Times,serif" font-size="14.00">CommentsController</text>
<polyline fill="none" stroke="black" points="255,-311.5 387,-311.5"/>
<text text-anchor="start" x="263" y="-296.3" font-family="Times,serif" font-size="14.00">create</text>
<text text-anchor="start" x="263" y="-281.3" font-family="Times,serif" font-size="14.00">destroy</text>
<text text-anchor="start" x="263" y="-266.3" font-family="Times,serif" font-size="14.00">dislike</text>
<text text-anchor="start" x="263" y="-251.3" font-family="Times,serif" font-size="14.00">like</text>
<text text-anchor="start" x="263" y="-236.3" font-family="Times,serif" font-size="14.00">update</text>
<polyline fill="none" stroke="black" points="255,-228.5 387,-228.5"/>
<polyline fill="none" stroke="black" points="255,-204.5 387,-204.5"/>
<text text-anchor="start" x="263" y="-189.3" font-family="Times,serif" font-size="14.00">_layout</text>
<text text-anchor="start" x="263" y="-174.3" font-family="Times,serif" font-size="14.00">_layout_from_proc</text>
<text text-anchor="start" x="263" y="-159.3" font-family="Times,serif" font-size="14.00">create_params</text>
<text text-anchor="start" x="263" y="-144.3" font-family="Times,serif" font-size="14.00">find_commentable</text>
</g>
<!-- CoursesController -->
<g id="node4" class="node">
<title>CoursesController</title>
<path fill="none" stroke="black" d="M12,-408.5C12,-408.5 110,-408.5 110,-408.5 116,-408.5 122,-414.5 122,-420.5 122,-420.5 122,-504.5 122,-504.5 122,-510.5 116,-516.5 110,-516.5 110,-516.5 12,-516.5 12,-516.5 6,-516.5 0,-510.5 0,-504.5 0,-504.5 0,-420.5 0,-420.5 0,-414.5 6,-408.5 12,-408.5"/>
<text text-anchor="middle" x="61" y="-501.3" font-family="Times,serif" font-size="14.00">CoursesController</text>
<polyline fill="none" stroke="black" points="0,-493.5 122,-493.5"/>
<text text-anchor="start" x="8" y="-478.3" font-family="Times,serif" font-size="14.00">index</text>
<polyline fill="none" stroke="black" points="0,-470.5 122,-470.5"/>
<polyline fill="none" stroke="black" points="0,-446.5 122,-446.5"/>
<text text-anchor="start" x="8" y="-431.3" font-family="Times,serif" font-size="14.00">_layout</text>
<text text-anchor="start" x="8" y="-416.3" font-family="Times,serif" font-size="14.00">_layout_from_proc</text>
</g>
<!-- LandingController -->
<g id="node5" class="node">
<title>LandingController</title>
<path fill="none" stroke="black" d="M267,-0.5C267,-0.5 365,-0.5 365,-0.5 371,-0.5 377,-6.5 377,-12.5 377,-12.5 377,-96.5 377,-96.5 377,-102.5 371,-108.5 365,-108.5 365,-108.5 267,-108.5 267,-108.5 261,-108.5 255,-102.5 255,-96.5 255,-96.5 255,-12.5 255,-12.5 255,-6.5 261,-0.5 267,-0.5"/>
<text text-anchor="middle" x="316" y="-93.3" font-family="Times,serif" font-size="14.00">LandingController</text>
<polyline fill="none" stroke="black" points="255,-85.5 377,-85.5"/>
<text text-anchor="start" x="263" y="-70.3" font-family="Times,serif" font-size="14.00">index</text>
<polyline fill="none" stroke="black" points="255,-62.5 377,-62.5"/>
<polyline fill="none" stroke="black" points="255,-38.5 377,-38.5"/>
<text text-anchor="start" x="263" y="-23.3" font-family="Times,serif" font-size="14.00">_layout</text>
<text text-anchor="start" x="263" y="-8.3" font-family="Times,serif" font-size="14.00">_layout_from_proc</text>
</g>
<!-- PostsController -->
<g id="node6" class="node">
<title>PostsController</title>
<path fill="none" stroke="black" d="M114,-51.5C114,-51.5 212,-51.5 212,-51.5 218,-51.5 224,-57.5 224,-63.5 224,-63.5 224,-357.5 224,-357.5 224,-363.5 218,-369.5 212,-369.5 212,-369.5 114,-369.5 114,-369.5 108,-369.5 102,-363.5 102,-357.5 102,-357.5 102,-63.5 102,-63.5 102,-57.5 108,-51.5 114,-51.5"/>
<text text-anchor="middle" x="163" y="-354.3" font-family="Times,serif" font-size="14.00">PostsController</text>
<polyline fill="none" stroke="black" points="102,-346.5 224,-346.5"/>
<text text-anchor="start" x="110" y="-331.3" font-family="Times,serif" font-size="14.00">update</text>
<text text-anchor="start" x="110" y="-316.3" font-family="Times,serif" font-size="14.00">create</text>
<text text-anchor="start" x="110" y="-301.3" font-family="Times,serif" font-size="14.00">destroy</text>
<text text-anchor="start" x="110" y="-286.3" font-family="Times,serif" font-size="14.00">dislike</text>
<text text-anchor="start" x="110" y="-271.3" font-family="Times,serif" font-size="14.00">edit</text>
<text text-anchor="start" x="110" y="-256.3" font-family="Times,serif" font-size="14.00">index</text>
<text text-anchor="start" x="110" y="-241.3" font-family="Times,serif" font-size="14.00">like</text>
<text text-anchor="start" x="110" y="-226.3" font-family="Times,serif" font-size="14.00">new</text>
<text text-anchor="start" x="110" y="-211.3" font-family="Times,serif" font-size="14.00">show</text>
<text text-anchor="start" x="110" y="-196.3" font-family="Times,serif" font-size="14.00">all</text>
<polyline fill="none" stroke="black" points="102,-188.5 224,-188.5"/>
<polyline fill="none" stroke="black" points="102,-164.5 224,-164.5"/>
<text text-anchor="start" x="110" y="-149.3" font-family="Times,serif" font-size="14.00">_layout</text>
<text text-anchor="start" x="110" y="-134.3" font-family="Times,serif" font-size="14.00">_layout_from_proc</text>
<text text-anchor="start" x="110" y="-119.3" font-family="Times,serif" font-size="14.00">create_params</text>
<text text-anchor="start" x="110" y="-104.3" font-family="Times,serif" font-size="14.00">creator_logged_in?</text>
<text text-anchor="start" x="110" y="-89.3" font-family="Times,serif" font-size="14.00">record_not_found</text>
<text text-anchor="start" x="110" y="-74.3" font-family="Times,serif" font-size="14.00">sort_posts</text>
<text text-anchor="start" x="110" y="-59.3" font-family="Times,serif" font-size="14.00">update_params</text>
</g>
</g>
</svg>
