<?xml version="1.0" encoding="UTF-8" standalone="no"?>
<!DOCTYPE svg PUBLIC "-//W3C//DTD SVG 1.1//EN"
 "http://www.w3.org/Graphics/SVG/1.1/DTD/svg11.dtd">
<!-- Generated by graphviz version 7.0.2 (20221119.0110)
 -->
<!-- Title: controllers_diagram Pages: 1 -->
<svg width="546pt" height="469pt"
 viewBox="0.00 0.00 546.00 469.00" xmlns="http://www.w3.org/2000/svg" xmlns:xlink="http://www.w3.org/1999/xlink">
<g id="graph0" class="graph" transform="scale(1 1) rotate(0) translate(4 465)">
<title>controllers_diagram</title>
<polygon fill="none" stroke="none" points="-4,4 -4,-465 542,-465 542,4 -4,4"/>
<!-- _diagram_info -->
<g id="node1" class="node">
<title>_diagram_info</title>
<text text-anchor="start" x="328" y="-127.6" font-family="Times,serif" font-size="13.00">Controllers diagram</text>
<text text-anchor="start" x="328" y="-113.6" font-family="Times,serif" font-size="13.00">Date: Dec 06 2022 &#45; 10:50</text>
<text text-anchor="start" x="328" y="-99.6" font-family="Times,serif" font-size="13.00">Migration version: 20221121073745</text>
<text text-anchor="start" x="328" y="-85.6" font-family="Times,serif" font-size="13.00">Generated by RailRoady 1.6.0</text>
<text text-anchor="start" x="328" y="-71.6" font-family="Times,serif" font-size="13.00">http://railroady.prestonlee.com</text>
</g>
<!-- ApplicationController -->
<g id="node2" class="node">
<title>ApplicationController</title>
<path fill="none" stroke="black" d="M156,-288.5C156,-288.5 268,-288.5 268,-288.5 274,-288.5 280,-294.5 280,-300.5 280,-300.5 280,-384.5 280,-384.5 280,-390.5 274,-396.5 268,-396.5 268,-396.5 156,-396.5 156,-396.5 150,-396.5 144,-390.5 144,-384.5 144,-384.5 144,-300.5 144,-300.5 144,-294.5 150,-288.5 156,-288.5"/>
<text text-anchor="middle" x="212" y="-381.3" font-family="Times,serif" font-size="14.00">ApplicationController</text>
<polyline fill="none" stroke="black" points="144,-373.5 280,-373.5"/>
<text text-anchor="start" x="152" y="-358.3" font-family="Times,serif" font-size="14.00">current_controller?</text>
<polyline fill="none" stroke="black" points="144,-350.5 280,-350.5"/>
<polyline fill="none" stroke="black" points="144,-326.5 280,-326.5"/>
<text text-anchor="start" x="152" y="-311.3" font-family="Times,serif" font-size="14.00">_layout</text>
<text text-anchor="start" x="152" y="-296.3" font-family="Times,serif" font-size="14.00">_layout_from_proc</text>
</g>
<!-- CommentsController -->
<g id="node3" class="node">
<title>CommentsController</title>
<path fill="none" stroke="black" d="M332,-176.5C332,-176.5 440,-176.5 440,-176.5 446,-176.5 452,-182.5 452,-188.5 452,-188.5 452,-302.5 452,-302.5 452,-308.5 446,-314.5 440,-314.5 440,-314.5 332,-314.5 332,-314.5 326,-314.5 320,-308.5 320,-302.5 320,-302.5 320,-188.5 320,-188.5 320,-182.5 326,-176.5 332,-176.5"/>
<text text-anchor="middle" x="386" y="-299.3" font-family="Times,serif" font-size="14.00">CommentsController</text>
<polyline fill="none" stroke="black" points="320,-291.5 452,-291.5"/>
<text text-anchor="start" x="328" y="-276.3" font-family="Times,serif" font-size="14.00">create</text>
<polyline fill="none" stroke="black" points="320,-268.5 452,-268.5"/>
<polyline fill="none" stroke="black" points="320,-244.5 452,-244.5"/>
<text text-anchor="start" x="328" y="-229.3" font-family="Times,serif" font-size="14.00">_layout</text>
<text text-anchor="start" x="328" y="-214.3" font-family="Times,serif" font-size="14.00">_layout_from_proc</text>
<text text-anchor="start" x="328" y="-199.3" font-family="Times,serif" font-size="14.00">create_params</text>
<text text-anchor="start" x="328" y="-184.3" font-family="Times,serif" font-size="14.00">find_commentable</text>
</g>
<!-- CoursesController -->
<g id="node4" class="node">
<title>CoursesController</title>
<path fill="none" stroke="black" d="M428,-352.5C428,-352.5 526,-352.5 526,-352.5 532,-352.5 538,-358.5 538,-364.5 538,-364.5 538,-448.5 538,-448.5 538,-454.5 532,-460.5 526,-460.5 526,-460.5 428,-460.5 428,-460.5 422,-460.5 416,-454.5 416,-448.5 416,-448.5 416,-364.5 416,-364.5 416,-358.5 422,-352.5 428,-352.5"/>
<text text-anchor="middle" x="477" y="-445.3" font-family="Times,serif" font-size="14.00">CoursesController</text>
<polyline fill="none" stroke="black" points="416,-437.5 538,-437.5"/>
<text text-anchor="start" x="424" y="-422.3" font-family="Times,serif" font-size="14.00">index</text>
<polyline fill="none" stroke="black" points="416,-414.5 538,-414.5"/>
<polyline fill="none" stroke="black" points="416,-390.5 538,-390.5"/>
<text text-anchor="start" x="424" y="-375.3" font-family="Times,serif" font-size="14.00">_layout</text>
<text text-anchor="start" x="424" y="-360.3" font-family="Times,serif" font-size="14.00">_layout_from_proc</text>
</g>
<!-- LandingController -->
<g id="node5" class="node">
<title>LandingController</title>
<path fill="none" stroke="black" d="M12,-144.5C12,-144.5 110,-144.5 110,-144.5 116,-144.5 122,-150.5 122,-156.5 122,-156.5 122,-240.5 122,-240.5 122,-246.5 116,-252.5 110,-252.5 110,-252.5 12,-252.5 12,-252.5 6,-252.5 0,-246.5 0,-240.5 0,-240.5 0,-156.5 0,-156.5 0,-150.5 6,-144.5 12,-144.5"/>
<text text-anchor="middle" x="61" y="-237.3" font-family="Times,serif" font-size="14.00">LandingController</text>
<polyline fill="none" stroke="black" points="0,-229.5 122,-229.5"/>
<text text-anchor="start" x="8" y="-214.3" font-family="Times,serif" font-size="14.00">index</text>
<polyline fill="none" stroke="black" points="0,-206.5 122,-206.5"/>
<polyline fill="none" stroke="black" points="0,-182.5 122,-182.5"/>
<text text-anchor="start" x="8" y="-167.3" font-family="Times,serif" font-size="14.00">_layout</text>
<text text-anchor="start" x="8" y="-152.3" font-family="Times,serif" font-size="14.00">_layout_from_proc</text>
</g>
<!-- PostsController -->
<g id="node6" class="node">
<title>PostsController</title>
<path fill="none" stroke="black" d="M172,-32.5C172,-32.5 270,-32.5 270,-32.5 276,-32.5 282,-38.5 282,-44.5 282,-44.5 282,-248.5 282,-248.5 282,-254.5 276,-260.5 270,-260.5 270,-260.5 172,-260.5 172,-260.5 166,-260.5 160,-254.5 160,-248.5 160,-248.5 160,-44.5 160,-44.5 160,-38.5 166,-32.5 172,-32.5"/>
<text text-anchor="middle" x="221" y="-245.3" font-family="Times,serif" font-size="14.00">PostsController</text>
<polyline fill="none" stroke="black" points="160,-237.5 282,-237.5"/>
<text text-anchor="start" x="168" y="-222.3" font-family="Times,serif" font-size="14.00">all</text>
<text text-anchor="start" x="168" y="-207.3" font-family="Times,serif" font-size="14.00">comments_count</text>
<text text-anchor="start" x="168" y="-192.3" font-family="Times,serif" font-size="14.00">create</text>
<text text-anchor="start" x="168" y="-177.3" font-family="Times,serif" font-size="14.00">index</text>
<text text-anchor="start" x="168" y="-162.3" font-family="Times,serif" font-size="14.00">new</text>
<text text-anchor="start" x="168" y="-147.3" font-family="Times,serif" font-size="14.00">show</text>
<text text-anchor="start" x="168" y="-132.3" font-family="Times,serif" font-size="14.00">sort_comments</text>
<polyline fill="none" stroke="black" points="160,-124.5 282,-124.5"/>
<polyline fill="none" stroke="black" points="160,-100.5 282,-100.5"/>
<text text-anchor="start" x="168" y="-85.3" font-family="Times,serif" font-size="14.00">_layout</text>
<text text-anchor="start" x="168" y="-70.3" font-family="Times,serif" font-size="14.00">_layout_from_proc</text>
<text text-anchor="start" x="168" y="-55.3" font-family="Times,serif" font-size="14.00">create_params</text>
<text text-anchor="start" x="168" y="-40.3" font-family="Times,serif" font-size="14.00">record_not_found</text>
</g>
<!-- RatingsController -->
<g id="node7" class="node">
<title>RatingsController</title>
<path fill="none" stroke="black" d="M12,-0.5C12,-0.5 110,-0.5 110,-0.5 116,-0.5 122,-6.5 122,-12.5 122,-12.5 122,-97.5 122,-97.5 122,-103.5 116,-109.5 110,-109.5 110,-109.5 12,-109.5 12,-109.5 6,-109.5 0,-103.5 0,-97.5 0,-97.5 0,-12.5 0,-12.5 0,-6.5 6,-0.5 12,-0.5"/>
<text text-anchor="middle" x="61" y="-94.3" font-family="Times,serif" font-size="14.00">RatingsController</text>
<polyline fill="none" stroke="black" points="0,-86.5 122,-86.5"/>
<polyline fill="none" stroke="black" points="0,-62.5 122,-62.5"/>
<polyline fill="none" stroke="black" points="0,-38.5 122,-38.5"/>
<text text-anchor="start" x="8" y="-23.3" font-family="Times,serif" font-size="14.00">_layout</text>
<text text-anchor="start" x="8" y="-8.3" font-family="Times,serif" font-size="14.00">_layout_from_proc</text>
</g>
</g>
</svg>
