<?xml version="1.0" encoding="UTF-8" standalone="no"?>
<!DOCTYPE svg PUBLIC "-//W3C//DTD SVG 1.1//EN"
 "http://www.w3.org/Graphics/SVG/1.1/DTD/svg11.dtd">
<!-- Generated by graphviz version 7.0.2 (20221119.0110)
 -->
<!-- Title: models_diagram Pages: 1 -->
<svg width="556pt" height="392pt"
 viewBox="0.00 0.00 555.80 392.00" xmlns="http://www.w3.org/2000/svg" xmlns:xlink="http://www.w3.org/1999/xlink">
<g id="graph0" class="graph" transform="scale(1 1) rotate(0) translate(4 388)">
<title>models_diagram</title>
<polygon fill="none" stroke="none" points="-4,4 -4,-388 551.8,-388 551.8,4 -4,4"/>
<!-- _diagram_info -->
<g id="node1" class="node">
<title>_diagram_info</title>
<text text-anchor="start" x="8" y="-369.6" font-family="Times,serif" font-size="13.00">Models diagram</text>
<text text-anchor="start" x="8" y="-355.6" font-family="Times,serif" font-size="13.00">Date: Dec 06 2022 &#45; 10:50</text>
<text text-anchor="start" x="8" y="-341.6" font-family="Times,serif" font-size="13.00">Migration version: 20221121073745</text>
<text text-anchor="start" x="8" y="-327.6" font-family="Times,serif" font-size="13.00">Generated by RailRoady 1.6.0</text>
<text text-anchor="start" x="8" y="-313.6" font-family="Times,serif" font-size="13.00">http://railroady.prestonlee.com</text>
</g>
<!-- ApplicationRecord -->
<g id="node2" class="node">
<title>ApplicationRecord</title>
<ellipse fill="none" stroke="black" cx="308.5" cy="-345" rx="77.19" ry="18"/>
<text text-anchor="middle" x="308.5" y="-341.3" font-family="Times,serif" font-size="14.00">ApplicationRecord</text>
</g>
<!-- Comment -->
<g id="node3" class="node">
<title>Comment</title>
<ellipse fill="none" stroke="black" cx="406.5" cy="-164" rx="46.29" ry="18"/>
<text text-anchor="middle" x="406.5" y="-160.3" font-family="Times,serif" font-size="14.00">Comment</text>
</g>
<!-- Comment&#45;&gt;Comment -->
<g id="edge3" class="edge">
<title>Comment&#45;&gt;Comment</title>
<path fill="none" stroke="#95a11a" d="M459.53,-169.97C466.23,-168.92 470.65,-166.93 470.65,-164 470.65,-161.07 466.23,-159.08 459.53,-158.03"/>
<polygon fill="#95a11a" stroke="#95a11a" points="459.94,-169.93 449.59,-166.31 454.95,-170.36 449.97,-170.79 449.97,-170.79 449.97,-170.79 454.95,-170.36 450.36,-175.28 459.94,-169.93 459.94,-169.93"/>
<polygon fill="#95a11a" stroke="#95a11a" points="459.94,-158.07 450.36,-152.72 454.95,-157.64 449.97,-157.21 449.97,-157.21 449.97,-157.21 454.95,-157.64 449.59,-161.69 459.94,-158.07 459.94,-158.07"/>
</g>
<!-- Rating -->
<g id="node7" class="node">
<title>Rating</title>
<ellipse fill="none" stroke="black" cx="332.5" cy="-91" rx="34.39" ry="18"/>
<text text-anchor="middle" x="332.5" y="-87.3" font-family="Times,serif" font-size="14.00">Rating</text>
</g>
<!-- Comment&#45;&gt;Rating -->
<g id="edge1" class="edge">
<title>Comment&#45;&gt;Rating</title>
<path fill="none" stroke="#194d40" d="M382.62,-140.09C373.82,-131.64 363.87,-122.1 355.17,-113.75"/>
<polygon fill="#194d40" stroke="#194d40" points="382.49,-139.97 386.59,-150.14 386.1,-143.43 389.71,-146.89 389.71,-146.89 389.71,-146.89 386.1,-143.43 392.82,-143.64 382.49,-139.97 382.49,-139.97"/>
<polygon fill="#194d40" stroke="#194d40" points="355.43,-114 351.33,-103.83 351.82,-110.54 348.21,-107.08 348.21,-107.08 348.21,-107.08 351.82,-110.54 345.1,-110.32 355.43,-114 355.43,-114"/>
</g>
<!-- Commentable -->
<g id="node10" class="node">
<title>Commentable</title>
<ellipse fill="none" stroke="black" cx="446.5" cy="-91" rx="61.19" ry="18"/>
<text text-anchor="middle" x="446.5" y="-87.3" font-family="Times,serif" font-size="14.00">Commentable</text>
</g>
<!-- Comment&#45;&gt;Commentable -->
<g id="edge2" class="edge">
<title>Comment&#45;&gt;Commentable</title>
<path fill="none" stroke="#400972" d="M420.83,-137.56C424.48,-131.09 428.4,-124.13 432.05,-117.65"/>
<polygon fill="#400972" stroke="#400972" points="420.89,-137.46 412.06,-143.97 418.43,-141.82 415.98,-146.17 415.98,-146.17 415.98,-146.17 418.43,-141.82 419.9,-148.38 420.89,-137.46 420.89,-137.46"/>
<polygon fill="#400972" stroke="#400972" points="431.9,-117.91 440.73,-111.41 434.36,-113.55 436.81,-109.2 436.81,-109.2 436.81,-109.2 434.36,-113.55 432.89,-106.99 431.9,-117.91 431.9,-117.91"/>
</g>
<!-- Course -->
<g id="node4" class="node">
<title>Course</title>
<ellipse fill="none" stroke="black" cx="439.5" cy="-345" rx="36" ry="18"/>
<text text-anchor="middle" x="439.5" y="-341.3" font-family="Times,serif" font-size="14.00">Course</text>
</g>
<!-- Course&#45;&gt;Comment -->
<g id="edge5" class="edge">
<title>Course&#45;&gt;Comment</title>
<path fill="none" stroke="#7133a0" d="M459.05,-320.18C475.17,-297.48 493.45,-262.48 480.5,-233 471.96,-213.55 454.8,-197.21 439.15,-185.43"/>
<polygon fill="#7133a0" stroke="#7133a0" points="459.23,-319.93 449.66,-325.27 456.25,-323.94 453.27,-327.95 453.27,-327.95 453.27,-327.95 456.25,-323.94 456.88,-330.64 459.23,-319.93 459.23,-319.93"/>
<polygon fill="#7133a0" stroke="#7133a0" points="439.28,-185.53 433.79,-176.04 435.22,-182.61 431.16,-179.7 431.16,-179.7 431.16,-179.7 435.22,-182.61 428.54,-183.35 439.28,-185.53 439.28,-185.53"/>
</g>
<!-- Post -->
<g id="node6" class="node">
<title>Post</title>
<ellipse fill="none" stroke="black" cx="284.5" cy="-251" rx="27" ry="18"/>
<text text-anchor="middle" x="284.5" y="-247.3" font-family="Times,serif" font-size="14.00">Post</text>
</g>
<!-- Course&#45;&gt;Post -->
<g id="edge4" class="edge">
<title>Course&#45;&gt;Post</title>
<path fill="none" stroke="#f70b39" d="M415.78,-322.11C409.15,-316.52 401.76,-310.74 394.5,-306 387.28,-301.28 345.04,-280.86 315.06,-266.53"/>
<polygon fill="#f70b39" stroke="#f70b39" points="415.62,-321.97 420.22,-331.93 419.4,-325.25 423.17,-328.53 423.17,-328.53 423.17,-328.53 419.4,-325.25 426.12,-325.13 415.62,-321.97 415.62,-321.97"/>
<polygon fill="#f70b39" stroke="#f70b39" points="315.23,-266.61 308.14,-258.24 310.72,-264.46 306.21,-262.3 306.21,-262.3 306.21,-262.3 310.72,-264.46 304.27,-266.36 315.23,-266.61 315.23,-266.61"/>
</g>
<!-- NestedComment -->
<g id="node5" class="node">
<title>NestedComment</title>
<ellipse fill="none" stroke="black" cx="400.5" cy="-251" rx="70.69" ry="18"/>
<text text-anchor="middle" x="400.5" y="-247.3" font-family="Times,serif" font-size="14.00">NestedComment</text>
</g>
<!-- NestedComment&#45;&gt;Comment -->
<g id="edge6" class="edge">
<title>NestedComment&#45;&gt;Comment</title>
<path fill="none" stroke="#1ed309" d="M402.39,-223.2C403.09,-213.32 403.88,-202.13 404.58,-192.22"/>
<polygon fill="#1ed309" stroke="#1ed309" points="402.42,-222.82 397.23,-232.48 402.07,-227.81 401.71,-232.8 401.71,-232.8 401.71,-232.8 402.07,-227.81 406.2,-233.12 402.42,-222.82 402.42,-222.82"/>
<polygon fill="#1ed309" stroke="#1ed309" points="404.56,-192.44 409.76,-182.78 404.91,-187.45 405.27,-182.47 405.27,-182.47 405.27,-182.47 404.91,-187.45 400.78,-182.15 404.56,-192.44 404.56,-192.44"/>
</g>
<!-- Post&#45;&gt;Comment -->
<g id="edge8" class="edge">
<title>Post&#45;&gt;Comment</title>
<path fill="none" stroke="#68e72b" d="M313.93,-234.81C324.46,-229.01 336.25,-222.08 346.5,-215 358.62,-206.63 371.26,-196.36 381.79,-187.31"/>
<polygon fill="#68e72b" stroke="#68e72b" points="314.25,-234.64 303.31,-235.44 309.85,-237.02 305.45,-239.39 305.45,-239.39 305.45,-239.39 309.85,-237.02 307.59,-243.35 314.25,-234.64 314.25,-234.64"/>
<polygon fill="#68e72b" stroke="#68e72b" points="381.52,-187.55 392.01,-184.37 385.29,-184.27 389.05,-180.98 389.05,-180.98 389.05,-180.98 385.29,-184.27 386.1,-177.59 381.52,-187.55 381.52,-187.55"/>
</g>
<!-- Post&#45;&gt;Rating -->
<g id="edge9" class="edge">
<title>Post&#45;&gt;Rating</title>
<path fill="none" stroke="#dc1e3b" d="M308.39,-229.75C312.36,-225.29 315.99,-220.3 318.5,-215 332.97,-184.44 334.94,-144.99 334.31,-119.11"/>
<polygon fill="#dc1e3b" stroke="#dc1e3b" points="308.54,-229.59 298.32,-233.57 305.03,-233.16 301.53,-236.72 301.53,-236.72 301.53,-236.72 305.03,-233.16 304.73,-239.88 308.54,-229.59 308.54,-229.59"/>
<polygon fill="#dc1e3b" stroke="#dc1e3b" points="334.32,-119.24 338.43,-109.08 334.12,-114.25 333.93,-109.25 333.93,-109.25 333.93,-109.25 334.12,-114.25 329.43,-109.43 334.32,-119.24 334.32,-119.24"/>
</g>
<!-- Tag -->
<g id="node8" class="node">
<title>Tag</title>
<ellipse fill="none" stroke="black" cx="85.5" cy="-164" rx="27" ry="18"/>
<text text-anchor="middle" x="85.5" y="-160.3" font-family="Times,serif" font-size="14.00">Tag</text>
</g>
<!-- Post&#45;&gt;Tag -->
<g id="edge7" class="edge">
<title>Post&#45;&gt;Tag</title>
<path fill="none" stroke="#8a774a" d="M252.52,-237.16C219.52,-223.8 166.64,-202.06 121.5,-182 119.75,-181.22 117.95,-180.41 116.14,-179.59"/>
<polygon fill="#8a774a" stroke="#8a774a" points="252.41,-237.12 260,-245.04 257.05,-238.99 261.68,-240.87 261.68,-240.87 261.68,-240.87 257.05,-238.99 263.37,-236.69 252.41,-237.12 252.41,-237.12"/>
<polygon fill="#8a774a" stroke="#8a774a" points="116.2,-179.61 109.02,-171.33 111.66,-177.51 107.13,-175.41 107.13,-175.41 107.13,-175.41 111.66,-177.51 105.24,-179.49 116.2,-179.61 116.2,-179.61"/>
</g>
<!-- ActionText::RichText -->
<g id="node11" class="node">
<title>ActionText::RichText</title>
<ellipse fill="none" stroke="black" cx="217.5" cy="-164" rx="87.18" ry="18"/>
<text text-anchor="middle" x="217.5" y="-160.3" font-family="Times,serif" font-size="14.00">ActionText::RichText</text>
</g>
<!-- Post&#45;&gt;ActionText::RichText -->
<g id="edge10" class="edge">
<title>Post&#45;&gt;ActionText::RichText</title>
<path fill="none" stroke="#fdd087" d="M251.66,-238.19C241.02,-232.75 230.24,-225.18 223.5,-215 219.02,-208.23 217,-199.8 216.25,-191.8"/>
<polygon fill="#fdd087" stroke="#fdd087" points="251.4,-238.07 258.58,-246.36 255.93,-240.17 260.47,-242.27 260.47,-242.27 260.47,-242.27 255.93,-240.17 262.36,-238.19 251.4,-238.07 251.4,-238.07"/>
<polygon fill="#fdd087" stroke="#fdd087" points="216.26,-192.05 220.37,-181.88 216.07,-187.05 215.88,-182.05 215.88,-182.05 215.88,-182.05 216.07,-187.05 211.38,-182.23 216.26,-192.05 216.26,-192.05"/>
<text text-anchor="middle" x="271" y="-203.8" font-family="Times,serif" font-size="14.00">rich_text_content</text>
</g>
<!-- Rateable -->
<g id="node12" class="node">
<title>Rateable</title>
<ellipse fill="none" stroke="black" cx="332.5" cy="-18" rx="41.69" ry="18"/>
<text text-anchor="middle" x="332.5" y="-14.3" font-family="Times,serif" font-size="14.00">Rateable</text>
</g>
<!-- Rating&#45;&gt;Rateable -->
<g id="edge11" class="edge">
<title>Rating&#45;&gt;Rateable</title>
<path fill="none" stroke="#1ca2b2" d="M332.5,-63.05C332.5,-57.38 332.5,-51.4 332.5,-45.74"/>
<polygon fill="#1ca2b2" stroke="#1ca2b2" points="332.5,-62.81 328,-72.81 332.5,-67.81 332.5,-72.81 332.5,-72.81 332.5,-72.81 332.5,-67.81 337,-72.81 332.5,-62.81 332.5,-62.81"/>
<polygon fill="#1ca2b2" stroke="#1ca2b2" points="332.5,-46.03 337,-36.03 332.5,-41.03 332.5,-36.03 332.5,-36.03 332.5,-36.03 332.5,-41.03 328,-36.03 332.5,-46.03 332.5,-46.03"/>
</g>
<!-- User -->
<g id="node9" class="node">
<title>User</title>
<ellipse fill="none" stroke="black" cx="520.5" cy="-345" rx="27.1" ry="18"/>
<text text-anchor="middle" x="520.5" y="-341.3" font-family="Times,serif" font-size="14.00">User</text>
</g>
</g>
</svg>
