<?xml version="1.0" encoding="UTF-8" standalone="no"?>
<!DOCTYPE svg PUBLIC "-//W3C//DTD SVG 1.1//EN"
 "http://www.w3.org/Graphics/SVG/1.1/DTD/svg11.dtd">
<!-- Generated by graphviz version 7.0.2 (20221119.0110)
 -->
<!-- Title: models_diagram Pages: 1 -->
<svg width="894pt" height="1037pt"
 viewBox="0.00 0.00 894.00 1037.00" xmlns="http://www.w3.org/2000/svg" xmlns:xlink="http://www.w3.org/1999/xlink">
<g id="graph0" class="graph" transform="scale(1 1) rotate(0) translate(4 1033)">
<title>models_diagram</title>
<polygon fill="none" stroke="none" points="-4,4 -4,-1033 890,-1033 890,4 -4,4"/>
<!-- _diagram_info -->
<g id="node1" class="node">
<title>_diagram_info</title>
<text text-anchor="start" x="8" y="-977.6" font-family="Times,serif" font-size="13.00">Models diagram</text>
<text text-anchor="start" x="8" y="-963.6" font-family="Times,serif" font-size="13.00">Date: Dec 09 2022 &#45; 16:21</text>
<text text-anchor="start" x="8" y="-949.6" font-family="Times,serif" font-size="13.00">Migration version: 20221209145650</text>
<text text-anchor="start" x="8" y="-935.6" font-family="Times,serif" font-size="13.00">Generated by RailRoady 1.6.0</text>
<text text-anchor="start" x="8" y="-921.6" font-family="Times,serif" font-size="13.00">http://railroady.prestonlee.com</text>
</g>
<!-- ApplicationRecord -->
<g id="node2" class="node">
<title>ApplicationRecord</title>
<ellipse fill="none" stroke="black" cx="309" cy="-953" rx="77.19" ry="18"/>
<text text-anchor="middle" x="309" y="-949.3" font-family="Times,serif" font-size="14.00">ApplicationRecord</text>
</g>
<!-- Comment -->
<g id="node3" class="node">
<title>Comment</title>
<path fill="none" stroke="black" d="M336.5,-290.5C336.5,-290.5 523.5,-290.5 523.5,-290.5 529.5,-290.5 535.5,-296.5 535.5,-302.5 535.5,-302.5 535.5,-519.5 535.5,-519.5 535.5,-525.5 529.5,-531.5 523.5,-531.5 523.5,-531.5 336.5,-531.5 336.5,-531.5 330.5,-531.5 324.5,-525.5 324.5,-519.5 324.5,-519.5 324.5,-302.5 324.5,-302.5 324.5,-296.5 330.5,-290.5 336.5,-290.5"/>
<text text-anchor="middle" x="430" y="-516.3" font-family="Times,serif" font-size="14.00">Comment</text>
<polyline fill="none" stroke="black" points="324.5,-508.5 535.5,-508.5"/>
<text text-anchor="start" x="332.5" y="-493.3" font-family="Times,serif" font-size="14.00">cached_weighted_average :float</text>
<text text-anchor="start" x="332.5" y="-478.3" font-family="Times,serif" font-size="14.00">text_body :varchar</text>
<text text-anchor="start" x="332.5" y="-463.3" font-family="Times,serif" font-size="14.00">commentable_id :INTEGER</text>
<text text-anchor="start" x="332.5" y="-448.3" font-family="Times,serif" font-size="14.00">commentable_type :varchar</text>
<text text-anchor="start" x="332.5" y="-433.3" font-family="Times,serif" font-size="14.00">created_at :datetime(6)</text>
<text text-anchor="start" x="332.5" y="-418.3" font-family="Times,serif" font-size="14.00">updated_at :datetime(6)</text>
<text text-anchor="start" x="332.5" y="-403.3" font-family="Times,serif" font-size="14.00">user_id :INTEGER</text>
<text text-anchor="start" x="332.5" y="-388.3" font-family="Times,serif" font-size="14.00">cached_votes_total :INTEGER</text>
<text text-anchor="start" x="332.5" y="-373.3" font-family="Times,serif" font-size="14.00">cached_votes_score :INTEGER</text>
<text text-anchor="start" x="332.5" y="-358.3" font-family="Times,serif" font-size="14.00">cached_votes_up :INTEGER</text>
<text text-anchor="start" x="332.5" y="-343.3" font-family="Times,serif" font-size="14.00">cached_votes_down :INTEGER</text>
<text text-anchor="start" x="332.5" y="-328.3" font-family="Times,serif" font-size="14.00">cached_weighted_score :INTEGER</text>
<text text-anchor="start" x="332.5" y="-313.3" font-family="Times,serif" font-size="14.00">cached_weighted_total :INTEGER</text>
<text text-anchor="start" x="332.5" y="-298.3" font-family="Times,serif" font-size="14.00">id :INTEGER</text>
</g>
<!-- Comment&#45;&gt;Comment -->
<g id="edge4" class="edge">
<title>Comment&#45;&gt;Comment</title>
<path fill="none" stroke="#f9b11c" d="M544.1,-428.97C550.01,-424.53 553.5,-418.54 553.5,-411 553.5,-403.46 550.01,-397.47 544.1,-393.03"/>
<polygon fill="#f9b11c" stroke="#f9b11c" points="544.16,-428.93 533.23,-429.82 539.78,-431.35 535.41,-433.76 535.41,-433.76 535.41,-433.76 539.78,-431.35 537.58,-437.7 544.16,-428.93 544.16,-428.93"/>
<polygon fill="#f9b11c" stroke="#f9b11c" points="544.16,-393.07 537.58,-384.3 539.78,-390.65 535.41,-388.24 535.41,-388.24 535.41,-388.24 539.78,-390.65 533.23,-392.18 544.16,-393.07 544.16,-393.07"/>
</g>
<!-- User -->
<g id="node6" class="node">
<title>User</title>
<path fill="none" stroke="black" d="M521.5,-87.5C521.5,-87.5 712.5,-87.5 712.5,-87.5 718.5,-87.5 724.5,-93.5 724.5,-99.5 724.5,-99.5 724.5,-226.5 724.5,-226.5 724.5,-232.5 718.5,-238.5 712.5,-238.5 712.5,-238.5 521.5,-238.5 521.5,-238.5 515.5,-238.5 509.5,-232.5 509.5,-226.5 509.5,-226.5 509.5,-99.5 509.5,-99.5 509.5,-93.5 515.5,-87.5 521.5,-87.5"/>
<text text-anchor="middle" x="617" y="-223.3" font-family="Times,serif" font-size="14.00">User</text>
<polyline fill="none" stroke="black" points="509.5,-215.5 724.5,-215.5"/>
<text text-anchor="start" x="517.5" y="-200.3" font-family="Times,serif" font-size="14.00">updated_at :datetime(6)</text>
<text text-anchor="start" x="517.5" y="-185.3" font-family="Times,serif" font-size="14.00">email :varchar</text>
<text text-anchor="start" x="517.5" y="-170.3" font-family="Times,serif" font-size="14.00">encrypted_password :varchar</text>
<text text-anchor="start" x="517.5" y="-155.3" font-family="Times,serif" font-size="14.00">reset_password_token :varchar</text>
<text text-anchor="start" x="517.5" y="-140.3" font-family="Times,serif" font-size="14.00">reset_password_sent_at :datetime(6)</text>
<text text-anchor="start" x="517.5" y="-125.3" font-family="Times,serif" font-size="14.00">remember_created_at :datetime(6)</text>
<text text-anchor="start" x="517.5" y="-110.3" font-family="Times,serif" font-size="14.00">created_at :datetime(6)</text>
<text text-anchor="start" x="517.5" y="-95.3" font-family="Times,serif" font-size="14.00">id :INTEGER</text>
</g>
<!-- Comment&#45;&gt;User -->
<g id="edge3" class="edge">
<title>Comment&#45;&gt;User</title>
<path fill="none" stroke="#726694" d="M526.81,-282.64C536.3,-270.16 545.74,-257.74 554.75,-245.89"/>
<polygon fill="#726694" stroke="#726694" points="526.81,-282.64 517.18,-287.88 523.79,-286.62 520.76,-290.6 520.76,-290.6 520.76,-290.6 523.79,-286.62 524.34,-293.33 526.81,-282.64 526.81,-282.64"/>
<polygon fill="#726694" stroke="#726694" points="554.55,-246.15 564.19,-240.91 557.58,-242.17 560.6,-238.19 560.6,-238.19 560.6,-238.19 557.58,-242.17 557.02,-235.47 554.55,-246.15 554.55,-246.15"/>
</g>
<!-- ActsAsVotable::Vote -->
<g id="node7" class="node">
<title>ActsAsVotable::Vote</title>
<ellipse fill="none" stroke="black" cx="617" cy="-18" rx="84.49" ry="18"/>
<text text-anchor="middle" x="617" y="-14.3" font-family="Times,serif" font-size="14.00">ActsAsVotable::Vote</text>
</g>
<!-- Comment&#45;&gt;ActsAsVotable::Vote -->
<g id="edge1" class="edge">
<title>Comment&#45;&gt;ActsAsVotable::Vote</title>
<path fill="none" stroke="#daab3d" d="M326.16,-282.54C287.36,-218.87 262.53,-143.56 308,-87 335.37,-52.96 447.98,-34.97 529.37,-26.22"/>
<polygon fill="#daab3d" stroke="#daab3d" points="325.92,-282.16 327.39,-293.02 328.56,-286.4 331.21,-290.64 331.21,-290.64 331.21,-290.64 328.56,-286.4 335.03,-288.26 325.92,-282.16 325.92,-282.16"/>
<polygon fill="#daab3d" stroke="#daab3d" points="529.18,-26.24 539.6,-29.68 534.16,-25.72 539.13,-25.2 539.13,-25.2 539.13,-25.2 534.16,-25.72 538.66,-20.73 529.18,-26.24 529.18,-26.24"/>
<text text-anchor="middle" x="334" y="-159.3" font-family="Times,serif" font-size="14.00">votes_for</text>
</g>
<!-- Commentable -->
<g id="node8" class="node">
<title>Commentable</title>
<ellipse fill="none" stroke="black" cx="430" cy="-163" rx="61.19" ry="18"/>
<text text-anchor="middle" x="430" y="-159.3" font-family="Times,serif" font-size="14.00">Commentable</text>
</g>
<!-- Comment&#45;&gt;Commentable -->
<g id="edge2" class="edge">
<title>Comment&#45;&gt;Commentable</title>
<path fill="none" stroke="#180a21" d="M430,-280.81C430,-246.67 430,-213.16 430,-190.85"/>
<polygon fill="#180a21" stroke="#180a21" points="430,-280.6 425.5,-290.6 430,-285.6 430,-290.6 430,-290.6 430,-290.6 430,-285.6 434.5,-290.6 430,-280.6 430,-280.6"/>
<polygon fill="#180a21" stroke="#180a21" points="430,-191.13 434.5,-181.13 430,-186.13 430,-181.13 430,-181.13 430,-181.13 430,-186.13 425.5,-181.13 430,-191.13 430,-191.13"/>
</g>
<!-- Course -->
<g id="node4" class="node">
<title>Course</title>
<path fill="none" stroke="black" d="M416.5,-877.5C416.5,-877.5 541.5,-877.5 541.5,-877.5 547.5,-877.5 553.5,-883.5 553.5,-889.5 553.5,-889.5 553.5,-1016.5 553.5,-1016.5 553.5,-1022.5 547.5,-1028.5 541.5,-1028.5 541.5,-1028.5 416.5,-1028.5 416.5,-1028.5 410.5,-1028.5 404.5,-1022.5 404.5,-1016.5 404.5,-1016.5 404.5,-889.5 404.5,-889.5 404.5,-883.5 410.5,-877.5 416.5,-877.5"/>
<text text-anchor="middle" x="479" y="-1013.3" font-family="Times,serif" font-size="14.00">Course</text>
<polyline fill="none" stroke="black" points="404.5,-1005.5 553.5,-1005.5"/>
<text text-anchor="start" x="412.5" y="-990.3" font-family="Times,serif" font-size="14.00">updated_at :datetime(6)</text>
<text text-anchor="start" x="412.5" y="-975.3" font-family="Times,serif" font-size="14.00">title :varchar</text>
<text text-anchor="start" x="412.5" y="-960.3" font-family="Times,serif" font-size="14.00">course_code :INTEGER</text>
<text text-anchor="start" x="412.5" y="-945.3" font-family="Times,serif" font-size="14.00">description :TEXT</text>
<text text-anchor="start" x="412.5" y="-930.3" font-family="Times,serif" font-size="14.00">department :varchar</text>
<text text-anchor="start" x="412.5" y="-915.3" font-family="Times,serif" font-size="14.00">faculty :varchar</text>
<text text-anchor="start" x="412.5" y="-900.3" font-family="Times,serif" font-size="14.00">created_at :datetime(6)</text>
<text text-anchor="start" x="412.5" y="-885.3" font-family="Times,serif" font-size="14.00">id :INTEGER</text>
</g>
<!-- Course&#45;&gt;Comment -->
<g id="edge6" class="edge">
<title>Course&#45;&gt;Comment</title>
<path fill="none" stroke="#974295" d="M470.65,-867.85C469.74,-858.45 468.84,-849.02 468,-840 458.63,-739.8 448.58,-626.34 441.17,-541.43"/>
<polygon fill="#974295" stroke="#974295" points="470.63,-867.65 467.12,-878.04 471.11,-872.63 471.6,-877.61 471.6,-877.61 471.6,-877.61 471.11,-872.63 476.07,-877.17 470.63,-867.65 470.63,-867.65"/>
<polygon fill="#974295" stroke="#974295" points="441.18,-541.45 444.79,-531.09 440.74,-536.47 440.31,-531.48 440.31,-531.48 440.31,-531.48 440.74,-536.47 435.82,-531.88 441.18,-541.45 441.18,-541.45"/>
</g>
<!-- Post -->
<g id="node5" class="node">
<title>Post</title>
<path fill="none" stroke="black" d="M488.5,-583.5C488.5,-583.5 675.5,-583.5 675.5,-583.5 681.5,-583.5 687.5,-589.5 687.5,-595.5 687.5,-595.5 687.5,-827.5 687.5,-827.5 687.5,-833.5 681.5,-839.5 675.5,-839.5 675.5,-839.5 488.5,-839.5 488.5,-839.5 482.5,-839.5 476.5,-833.5 476.5,-827.5 476.5,-827.5 476.5,-595.5 476.5,-595.5 476.5,-589.5 482.5,-583.5 488.5,-583.5"/>
<text text-anchor="middle" x="582" y="-824.3" font-family="Times,serif" font-size="14.00">Post</text>
<polyline fill="none" stroke="black" points="476.5,-816.5 687.5,-816.5"/>
<text text-anchor="start" x="484.5" y="-801.3" font-family="Times,serif" font-size="14.00">cached_weighted_average :float</text>
<text text-anchor="start" x="484.5" y="-786.3" font-family="Times,serif" font-size="14.00">title :varchar</text>
<text text-anchor="start" x="484.5" y="-771.3" font-family="Times,serif" font-size="14.00">description :varchar</text>
<text text-anchor="start" x="484.5" y="-756.3" font-family="Times,serif" font-size="14.00">view :INTEGER</text>
<text text-anchor="start" x="484.5" y="-741.3" font-family="Times,serif" font-size="14.00">created_at :datetime(6)</text>
<text text-anchor="start" x="484.5" y="-726.3" font-family="Times,serif" font-size="14.00">updated_at :datetime(6)</text>
<text text-anchor="start" x="484.5" y="-711.3" font-family="Times,serif" font-size="14.00">course_id :INTEGER</text>
<text text-anchor="start" x="484.5" y="-696.3" font-family="Times,serif" font-size="14.00">user_id :INTEGER</text>
<text text-anchor="start" x="484.5" y="-681.3" font-family="Times,serif" font-size="14.00">cached_votes_total :INTEGER</text>
<text text-anchor="start" x="484.5" y="-666.3" font-family="Times,serif" font-size="14.00">cached_votes_score :INTEGER</text>
<text text-anchor="start" x="484.5" y="-651.3" font-family="Times,serif" font-size="14.00">cached_votes_up :INTEGER</text>
<text text-anchor="start" x="484.5" y="-636.3" font-family="Times,serif" font-size="14.00">cached_votes_down :INTEGER</text>
<text text-anchor="start" x="484.5" y="-621.3" font-family="Times,serif" font-size="14.00">cached_weighted_score :INTEGER</text>
<text text-anchor="start" x="484.5" y="-606.3" font-family="Times,serif" font-size="14.00">cached_weighted_total :INTEGER</text>
<text text-anchor="start" x="484.5" y="-591.3" font-family="Times,serif" font-size="14.00">id :INTEGER</text>
</g>
<!-- Course&#45;&gt;Post -->
<g id="edge5" class="edge">
<title>Course&#45;&gt;Post</title>
<path fill="none" stroke="#1b4432" d="M514.9,-868.53C517.77,-861.85 520.72,-855 523.69,-848.08"/>
<polygon fill="#1b4432" stroke="#1b4432" points="514.98,-868.35 506.89,-875.76 513,-872.94 511.03,-877.53 511.03,-877.53 511.03,-877.53 513,-872.94 515.16,-879.31 514.98,-868.35 514.98,-868.35"/>
<polygon fill="#1b4432" stroke="#1b4432" points="523.52,-848.47 531.61,-841.06 525.5,-843.88 527.48,-839.28 527.48,-839.28 527.48,-839.28 525.5,-843.88 523.34,-837.5 523.52,-848.47 523.52,-848.47"/>
</g>
<!-- Post&#45;&gt;Comment -->
<g id="edge9" class="edge">
<title>Post&#45;&gt;Comment</title>
<path fill="none" stroke="#dd6c1f" d="M513.14,-575.28C507.18,-563.56 501.15,-551.72 495.21,-540.06"/>
<polygon fill="#dd6c1f" stroke="#dd6c1f" points="513,-575 513.53,-585.95 515.27,-579.45 517.54,-583.91 517.54,-583.91 517.54,-583.91 515.27,-579.45 521.55,-581.87 513,-575 513,-575"/>
<polygon fill="#dd6c1f" stroke="#dd6c1f" points="495.23,-540.1 494.7,-529.15 492.96,-535.64 490.69,-531.19 490.69,-531.19 490.69,-531.19 492.96,-535.64 486.68,-533.23 495.23,-540.1 495.23,-540.1"/>
</g>
<!-- Post&#45;&gt;User -->
<g id="edge8" class="edge">
<title>Post&#45;&gt;User</title>
<path fill="none" stroke="#d7564f" d="M585.37,-573.9C588.1,-491.55 592.87,-384.63 601,-290 602.17,-276.34 603.72,-261.89 605.39,-247.84"/>
<polygon fill="#d7564f" stroke="#d7564f" points="585.37,-573.83 580.55,-583.67 585.21,-578.82 585.05,-583.82 585.05,-583.82 585.05,-583.82 585.21,-578.82 589.54,-583.97 585.37,-573.83 585.37,-573.83"/>
<polygon fill="#d7564f" stroke="#d7564f" points="605.36,-248.11 611.03,-238.72 605.96,-243.14 606.56,-238.18 606.56,-238.18 606.56,-238.18 605.96,-243.14 602.1,-237.64 605.36,-248.11 605.36,-248.11"/>
</g>
<!-- Post&#45;&gt;ActsAsVotable::Vote -->
<g id="edge7" class="edge">
<title>Post&#45;&gt;ActsAsVotable::Vote</title>
<path fill="none" stroke="#3167bf" d="M695.07,-643.98C733.54,-614.92 772.08,-577.09 793,-532 876.95,-351.01 856.89,-244.17 734,-87 717.01,-65.27 690.99,-49.17 667.8,-38.1"/>
<polygon fill="#3167bf" stroke="#3167bf" points="695.42,-643.72 684.7,-646.06 691.4,-646.7 687.38,-649.67 687.38,-649.67 687.38,-649.67 691.4,-646.7 690.06,-653.29 695.42,-643.72 695.42,-643.72"/>
<polygon fill="#3167bf" stroke="#3167bf" points="667.84,-38.12 660.62,-29.87 663.29,-36.04 658.74,-33.96 658.74,-33.96 658.74,-33.96 663.29,-36.04 656.87,-38.05 667.84,-38.12 667.84,-38.12"/>
<text text-anchor="middle" x="860" y="-260.8" font-family="Times,serif" font-size="14.00">votes_for</text>
</g>
<!-- ActionText::RichText -->
<g id="node9" class="node">
<title>ActionText::RichText</title>
<ellipse fill="none" stroke="black" cx="697" cy="-411" rx="87.18" ry="18"/>
<text text-anchor="middle" x="697" y="-407.3" font-family="Times,serif" font-size="14.00">ActionText::RichText</text>
</g>
<!-- Post&#45;&gt;ActionText::RichText -->
<g id="edge10" class="edge">
<title>Post&#45;&gt;ActionText::RichText</title>
<path fill="none" stroke="#2afab9" d="M634.29,-574.77C654.14,-523.26 674.82,-469.57 686.77,-438.54"/>
<polygon fill="#2afab9" stroke="#2afab9" points="634.37,-574.58 626.57,-582.29 632.57,-579.24 630.77,-583.91 630.77,-583.91 630.77,-583.91 632.57,-579.24 634.97,-585.53 634.37,-574.58 634.37,-574.58"/>
<polygon fill="#2afab9" stroke="#2afab9" points="686.74,-438.63 694.53,-430.92 688.54,-433.96 690.34,-429.3 690.34,-429.3 690.34,-429.3 688.54,-433.96 686.14,-427.68 686.74,-438.63 686.74,-438.63"/>
<text text-anchor="middle" x="689.5" y="-553.8" font-family="Times,serif" font-size="14.00">rich_text_content</text>
</g>
<!-- User&#45;&gt;ActsAsVotable::Vote -->
<g id="edge11" class="edge">
<title>User&#45;&gt;ActsAsVotable::Vote</title>
<path fill="none" stroke="#12696d" d="M617,-77.75C617,-66.39 617,-55.48 617,-46.2"/>
<polygon fill="#12696d" stroke="#12696d" points="617,-77.57 612.5,-87.57 617,-82.57 617,-87.57 617,-87.57 617,-87.57 617,-82.57 621.5,-87.57 617,-77.57 617,-77.57"/>
<polygon fill="#12696d" stroke="#12696d" points="617,-46.49 621.5,-36.49 617,-41.49 617,-36.49 617,-36.49 617,-36.49 617,-41.49 612.5,-36.49 617,-46.49 617,-46.49"/>
<text text-anchor="middle" x="631.5" y="-57.8" font-family="Times,serif" font-size="14.00">votes</text>
</g>
</g>
</svg>
