<?xml version="1.0" encoding="UTF-8" standalone="no"?>
<!DOCTYPE svg PUBLIC "-//W3C//DTD SVG 1.1//EN"
 "http://www.w3.org/Graphics/SVG/1.1/DTD/svg11.dtd">
<!-- Generated by graphviz version 7.0.2 (20221119.0110)
 -->
<!-- Title: models_diagram Pages: 1 -->
<svg width="808pt" height="666pt"
 viewBox="0.00 0.00 807.59 666.00" xmlns="http://www.w3.org/2000/svg" xmlns:xlink="http://www.w3.org/1999/xlink">
<g id="graph0" class="graph" transform="scale(1 1) rotate(0) translate(4 662)">
<title>models_diagram</title>
<polygon fill="none" stroke="none" points="-4,4 -4,-662 803.59,-662 803.59,4 -4,4"/>
<!-- _diagram_info -->
<g id="node1" class="node">
<title>_diagram_info</title>
<text text-anchor="start" x="8" y="-606.6" font-family="Times,serif" font-size="13.00">Models diagram</text>
<text text-anchor="start" x="8" y="-592.6" font-family="Times,serif" font-size="13.00">Date: Nov 29 2022 &#45; 10:26</text>
<text text-anchor="start" x="8" y="-578.6" font-family="Times,serif" font-size="13.00">Migration version: 20221121073745</text>
<text text-anchor="start" x="8" y="-564.6" font-family="Times,serif" font-size="13.00">Generated by RailRoady 1.6.0</text>
<text text-anchor="start" x="8" y="-550.6" font-family="Times,serif" font-size="13.00">http://railroady.prestonlee.com</text>
</g>
<!-- ApplicationRecord -->
<g id="node2" class="node">
<title>ApplicationRecord</title>
<ellipse fill="none" stroke="black" cx="308.5" cy="-582" rx="77.19" ry="18"/>
<text text-anchor="middle" x="308.5" y="-578.3" font-family="Times,serif" font-size="14.00">ApplicationRecord</text>
</g>
<!-- Comment -->
<g id="node3" class="node">
<title>Comment</title>
<path fill="none" stroke="black" d="M347.5,-362.5C347.5,-362.5 469.5,-362.5 469.5,-362.5 475.5,-362.5 481.5,-368.5 481.5,-374.5 481.5,-374.5 481.5,-456.5 481.5,-456.5 481.5,-462.5 475.5,-468.5 469.5,-468.5 469.5,-468.5 347.5,-468.5 347.5,-468.5 341.5,-468.5 335.5,-462.5 335.5,-456.5 335.5,-456.5 335.5,-374.5 335.5,-374.5 335.5,-368.5 341.5,-362.5 347.5,-362.5"/>
<text text-anchor="middle" x="408.5" y="-453.3" font-family="Times,serif" font-size="14.00">Comment</text>
<polyline fill="none" stroke="black" points="335.5,-445.5 481.5,-445.5"/>
<text text-anchor="start" x="343.5" y="-430.3" font-family="Times,serif" font-size="14.00">id :INTEGER</text>
<text text-anchor="start" x="343.5" y="-415.3" font-family="Times,serif" font-size="14.00">text_body :varchar</text>
<text text-anchor="start" x="343.5" y="-400.3" font-family="Times,serif" font-size="14.00">created_at :datetime(6)</text>
<text text-anchor="start" x="343.5" y="-385.3" font-family="Times,serif" font-size="14.00">updated_at :datetime(6)</text>
<text text-anchor="start" x="343.5" y="-370.3" font-family="Times,serif" font-size="14.00">post_id :INTEGER</text>
</g>
<!-- NestedComment -->
<g id="node5" class="node">
<title>NestedComment</title>
<path fill="none" stroke="black" d="M241,-203.5C241,-203.5 368,-203.5 368,-203.5 374,-203.5 380,-209.5 380,-215.5 380,-215.5 380,-297.5 380,-297.5 380,-303.5 374,-309.5 368,-309.5 368,-309.5 241,-309.5 241,-309.5 235,-309.5 229,-303.5 229,-297.5 229,-297.5 229,-215.5 229,-215.5 229,-209.5 235,-203.5 241,-203.5"/>
<text text-anchor="middle" x="304.5" y="-294.3" font-family="Times,serif" font-size="14.00">NestedComment</text>
<polyline fill="none" stroke="black" points="229,-286.5 380,-286.5"/>
<text text-anchor="start" x="237" y="-271.3" font-family="Times,serif" font-size="14.00">id :INTEGER</text>
<text text-anchor="start" x="237" y="-256.3" font-family="Times,serif" font-size="14.00">text :varchar</text>
<text text-anchor="start" x="237" y="-241.3" font-family="Times,serif" font-size="14.00">created_at :datetime(6)</text>
<text text-anchor="start" x="237" y="-226.3" font-family="Times,serif" font-size="14.00">updated_at :datetime(6)</text>
<text text-anchor="start" x="237" y="-211.3" font-family="Times,serif" font-size="14.00">comment_id :INTEGER</text>
</g>
<!-- Comment&#45;&gt;NestedComment -->
<g id="edge3" class="edge">
<title>Comment&#45;&gt;NestedComment</title>
<path fill="none" stroke="#6abeea" d="M368.75,-354.49C360.73,-342.39 352.3,-329.66 344.28,-317.56"/>
<polygon fill="#6abeea" stroke="#6abeea" points="368.64,-354.32 370.41,-365.14 371.4,-358.49 374.16,-362.66 374.16,-362.66 374.16,-362.66 371.4,-358.49 377.91,-360.17 368.64,-354.32 368.64,-354.32"/>
<polygon fill="#6abeea" stroke="#6abeea" points="344.33,-317.63 342.56,-306.8 341.57,-313.46 338.81,-309.29 338.81,-309.29 338.81,-309.29 341.57,-313.46 335.05,-311.77 344.33,-317.63 344.33,-317.63"/>
</g>
<!-- Post -->
<g id="node6" class="node">
<title>Post</title>
<path fill="none" stroke="black" d="M448.5,-188.5C448.5,-188.5 570.5,-188.5 570.5,-188.5 576.5,-188.5 582.5,-194.5 582.5,-200.5 582.5,-200.5 582.5,-312.5 582.5,-312.5 582.5,-318.5 576.5,-324.5 570.5,-324.5 570.5,-324.5 448.5,-324.5 448.5,-324.5 442.5,-324.5 436.5,-318.5 436.5,-312.5 436.5,-312.5 436.5,-200.5 436.5,-200.5 436.5,-194.5 442.5,-188.5 448.5,-188.5"/>
<text text-anchor="middle" x="509.5" y="-309.3" font-family="Times,serif" font-size="14.00">Post</text>
<polyline fill="none" stroke="black" points="436.5,-301.5 582.5,-301.5"/>
<text text-anchor="start" x="444.5" y="-286.3" font-family="Times,serif" font-size="14.00">id :INTEGER</text>
<text text-anchor="start" x="444.5" y="-271.3" font-family="Times,serif" font-size="14.00">title :varchar</text>
<text text-anchor="start" x="444.5" y="-256.3" font-family="Times,serif" font-size="14.00">description :varchar</text>
<text text-anchor="start" x="444.5" y="-241.3" font-family="Times,serif" font-size="14.00">view :INTEGER</text>
<text text-anchor="start" x="444.5" y="-226.3" font-family="Times,serif" font-size="14.00">created_at :datetime(6)</text>
<text text-anchor="start" x="444.5" y="-211.3" font-family="Times,serif" font-size="14.00">updated_at :datetime(6)</text>
<text text-anchor="start" x="444.5" y="-196.3" font-family="Times,serif" font-size="14.00">course_id :INTEGER</text>
</g>
<!-- Comment&#45;&gt;Post -->
<g id="edge1" class="edge">
<title>Comment&#45;&gt;Post</title>
<path fill="none" stroke="#d8c5a5" d="M447.1,-354.5C451.75,-347.27 456.54,-339.82 461.31,-332.42"/>
<polygon fill="#d8c5a5" stroke="#d8c5a5" points="447.26,-354.25 438.07,-360.22 444.56,-358.45 441.85,-362.66 441.85,-362.66 441.85,-362.66 444.56,-358.45 445.64,-365.09 447.26,-354.25 447.26,-354.25"/>
<polygon fill="#d8c5a5" stroke="#d8c5a5" points="461.05,-332.82 470.24,-326.84 463.75,-328.61 466.46,-324.41 466.46,-324.41 466.46,-324.41 463.75,-328.61 462.67,-321.97 461.05,-332.82 461.05,-332.82"/>
</g>
<!-- Rating -->
<g id="node7" class="node">
<title>Rating</title>
<path fill="none" stroke="black" d="M304,-0.5C304,-0.5 431,-0.5 431,-0.5 437,-0.5 443,-6.5 443,-12.5 443,-12.5 443,-124.5 443,-124.5 443,-130.5 437,-136.5 431,-136.5 431,-136.5 304,-136.5 304,-136.5 298,-136.5 292,-130.5 292,-124.5 292,-124.5 292,-12.5 292,-12.5 292,-6.5 298,-0.5 304,-0.5"/>
<text text-anchor="middle" x="367.5" y="-121.3" font-family="Times,serif" font-size="14.00">Rating</text>
<polyline fill="none" stroke="black" points="292,-113.5 443,-113.5"/>
<text text-anchor="start" x="300" y="-98.3" font-family="Times,serif" font-size="14.00">id :INTEGER</text>
<text text-anchor="start" x="300" y="-83.3" font-family="Times,serif" font-size="14.00">up :INTEGER</text>
<text text-anchor="start" x="300" y="-68.3" font-family="Times,serif" font-size="14.00">down :INTEGER</text>
<text text-anchor="start" x="300" y="-53.3" font-family="Times,serif" font-size="14.00">created_at :datetime(6)</text>
<text text-anchor="start" x="300" y="-38.3" font-family="Times,serif" font-size="14.00">updated_at :datetime(6)</text>
<text text-anchor="start" x="300" y="-23.3" font-family="Times,serif" font-size="14.00">post_id :INTEGER</text>
<text text-anchor="start" x="300" y="-8.3" font-family="Times,serif" font-size="14.00">comment_id :INTEGER</text>
</g>
<!-- Comment&#45;&gt;Rating -->
<g id="edge2" class="edge">
<title>Comment&#45;&gt;Rating</title>
<path fill="none" stroke="#2193dc" d="M404.52,-352.89C401.22,-307.25 395.87,-243.6 388.5,-188 386.69,-174.37 384.43,-159.91 382.06,-145.96"/>
<polygon fill="#2193dc" stroke="#2193dc" points="404.5,-352.66 400.72,-362.95 404.86,-357.65 405.21,-362.63 405.21,-362.63 405.21,-362.63 404.86,-357.65 409.7,-362.31 404.5,-352.66 404.5,-352.66"/>
<polygon fill="#2193dc" stroke="#2193dc" points="382.11,-146.25 384.84,-135.63 381.26,-141.32 380.41,-136.4 380.41,-136.4 380.41,-136.4 381.26,-141.32 375.97,-137.16 382.11,-146.25 382.11,-146.25"/>
</g>
<!-- Course -->
<g id="node4" class="node">
<title>Course</title>
<path fill="none" stroke="black" d="M416,-506.5C416,-506.5 541,-506.5 541,-506.5 547,-506.5 553,-512.5 553,-518.5 553,-518.5 553,-645.5 553,-645.5 553,-651.5 547,-657.5 541,-657.5 541,-657.5 416,-657.5 416,-657.5 410,-657.5 404,-651.5 404,-645.5 404,-645.5 404,-518.5 404,-518.5 404,-512.5 410,-506.5 416,-506.5"/>
<text text-anchor="middle" x="478.5" y="-642.3" font-family="Times,serif" font-size="14.00">Course</text>
<polyline fill="none" stroke="black" points="404,-634.5 553,-634.5"/>
<text text-anchor="start" x="412" y="-619.3" font-family="Times,serif" font-size="14.00">updated_at :datetime(6)</text>
<text text-anchor="start" x="412" y="-604.3" font-family="Times,serif" font-size="14.00">title :varchar</text>
<text text-anchor="start" x="412" y="-589.3" font-family="Times,serif" font-size="14.00">course_code :INTEGER</text>
<text text-anchor="start" x="412" y="-574.3" font-family="Times,serif" font-size="14.00">description :TEXT</text>
<text text-anchor="start" x="412" y="-559.3" font-family="Times,serif" font-size="14.00">department :varchar</text>
<text text-anchor="start" x="412" y="-544.3" font-family="Times,serif" font-size="14.00">faculty :varchar</text>
<text text-anchor="start" x="412" y="-529.3" font-family="Times,serif" font-size="14.00">created_at :datetime(6)</text>
<text text-anchor="start" x="412" y="-514.3" font-family="Times,serif" font-size="14.00">id :INTEGER</text>
</g>
<!-- Course&#45;&gt;Comment -->
<g id="edge5" class="edge">
<title>Course&#45;&gt;Comment</title>
<path fill="none" stroke="#315603" d="M443.17,-497.98C440.19,-490.96 437.21,-483.96 434.31,-477.16"/>
<polygon fill="#315603" stroke="#315603" points="443.07,-497.73 442.84,-508.69 445.02,-502.33 446.98,-506.93 446.98,-506.93 446.98,-506.93 445.02,-502.33 451.12,-505.17 443.07,-497.73 443.07,-497.73"/>
<polygon fill="#315603" stroke="#315603" points="434.35,-477.25 434.58,-466.28 432.39,-472.65 430.43,-468.05 430.43,-468.05 430.43,-468.05 432.39,-472.65 426.29,-469.81 434.35,-477.25 434.35,-477.25"/>
</g>
<!-- Course&#45;&gt;Post -->
<g id="edge4" class="edge">
<title>Course&#45;&gt;Post</title>
<path fill="none" stroke="#5e2711" d="M487.67,-496.86C488.65,-487.46 489.61,-478.03 490.5,-469 494.91,-424.26 499.43,-374.15 502.95,-333.94"/>
<polygon fill="#5e2711" stroke="#5e2711" points="487.69,-496.67 482.17,-506.15 487.17,-501.64 486.65,-506.62 486.65,-506.62 486.65,-506.62 487.17,-501.64 491.13,-507.08 487.69,-496.67 487.69,-496.67"/>
<polygon fill="#5e2711" stroke="#5e2711" points="502.93,-334.17 508.29,-324.6 503.37,-329.19 503.8,-324.21 503.8,-324.21 503.8,-324.21 503.37,-329.19 499.32,-323.82 502.93,-334.17 502.93,-334.17"/>
</g>
<!-- Post&#45;&gt;Rating -->
<g id="edge7" class="edge">
<title>Post&#45;&gt;Rating</title>
<path fill="none" stroke="#1d8cf3" d="M452.61,-180.98C443.38,-168.9 433.83,-156.38 424.6,-144.29"/>
<polygon fill="#1d8cf3" stroke="#1d8cf3" points="452.37,-180.66 454.86,-191.34 455.4,-184.64 458.44,-188.61 458.44,-188.61 458.44,-188.61 455.4,-184.64 462.01,-185.88 452.37,-180.66 452.37,-180.66"/>
<polygon fill="#1d8cf3" stroke="#1d8cf3" points="424.66,-144.37 422.17,-133.69 421.62,-140.39 418.59,-136.42 418.59,-136.42 418.59,-136.42 421.62,-140.39 415.01,-139.15 424.66,-144.37 424.66,-144.37"/>
</g>
<!-- Tag -->
<g id="node8" class="node">
<title>Tag</title>
<path fill="none" stroke="black" d="M473.5,-23C473.5,-23 595.5,-23 595.5,-23 601.5,-23 607.5,-29 607.5,-35 607.5,-35 607.5,-102 607.5,-102 607.5,-108 601.5,-114 595.5,-114 595.5,-114 473.5,-114 473.5,-114 467.5,-114 461.5,-108 461.5,-102 461.5,-102 461.5,-35 461.5,-35 461.5,-29 467.5,-23 473.5,-23"/>
<text text-anchor="middle" x="534.5" y="-98.8" font-family="Times,serif" font-size="14.00">Tag</text>
<polyline fill="none" stroke="black" points="461.5,-91 607.5,-91"/>
<text text-anchor="start" x="469.5" y="-75.8" font-family="Times,serif" font-size="14.00">id :INTEGER</text>
<text text-anchor="start" x="469.5" y="-60.8" font-family="Times,serif" font-size="14.00">tag_name :varchar</text>
<text text-anchor="start" x="469.5" y="-45.8" font-family="Times,serif" font-size="14.00">created_at :datetime(6)</text>
<text text-anchor="start" x="469.5" y="-30.8" font-family="Times,serif" font-size="14.00">updated_at :datetime(6)</text>
</g>
<!-- Post&#45;&gt;Tag -->
<g id="edge6" class="edge">
<title>Post&#45;&gt;Tag</title>
<path fill="none" stroke="#781614" d="M519.8,-178.87C522.29,-160.33 524.9,-140.89 527.22,-123.64"/>
<polygon fill="#781614" stroke="#781614" points="519.82,-178.7 514.03,-188.01 519.16,-183.66 518.49,-188.61 518.49,-188.61 518.49,-188.61 519.16,-183.66 522.95,-189.21 519.82,-178.7 519.82,-178.7"/>
<polygon fill="#781614" stroke="#781614" points="527.22,-123.66 533.01,-114.35 527.89,-118.7 528.55,-113.75 528.55,-113.75 528.55,-113.75 527.89,-118.7 524.09,-113.15 527.22,-123.66 527.22,-123.66"/>
</g>
<!-- ActionText::RichText -->
<g id="node10" class="node">
<title>ActionText::RichText</title>
<ellipse fill="none" stroke="black" cx="712.5" cy="-68.5" rx="87.18" ry="18"/>
<text text-anchor="middle" x="712.5" y="-64.8" font-family="Times,serif" font-size="14.00">ActionText::RichText</text>
</g>
<!-- Post&#45;&gt;ActionText::RichText -->
<g id="edge8" class="edge">
<title>Post&#45;&gt;ActionText::RichText</title>
<path fill="none" stroke="#46c91a" d="M589.32,-182.37C624.05,-150.54 662.34,-115.46 686.86,-92.99"/>
<polygon fill="#46c91a" stroke="#46c91a" points="589.59,-182.12 579.17,-185.56 585.9,-185.5 582.21,-188.88 582.21,-188.88 582.21,-188.88 585.9,-185.5 585.25,-192.19 589.59,-182.12 589.59,-182.12"/>
<polygon fill="#46c91a" stroke="#46c91a" points="686.64,-93.19 697.05,-89.76 690.33,-89.82 694.01,-86.44 694.01,-86.44 694.01,-86.44 690.33,-89.82 690.97,-83.12 686.64,-93.19 686.64,-93.19"/>
<text text-anchor="middle" x="664" y="-158.8" font-family="Times,serif" font-size="14.00">rich_text_content</text>
</g>
<!-- User -->
<g id="node9" class="node">
<title>User</title>
<path fill="none" stroke="black" d="M583.5,-521.5C583.5,-521.5 705.5,-521.5 705.5,-521.5 711.5,-521.5 717.5,-527.5 717.5,-533.5 717.5,-533.5 717.5,-630.5 717.5,-630.5 717.5,-636.5 711.5,-642.5 705.5,-642.5 705.5,-642.5 583.5,-642.5 583.5,-642.5 577.5,-642.5 571.5,-636.5 571.5,-630.5 571.5,-630.5 571.5,-533.5 571.5,-533.5 571.5,-527.5 577.5,-521.5 583.5,-521.5"/>
<text text-anchor="middle" x="644.5" y="-627.3" font-family="Times,serif" font-size="14.00">User</text>
<polyline fill="none" stroke="black" points="571.5,-619.5 717.5,-619.5"/>
<text text-anchor="start" x="579.5" y="-604.3" font-family="Times,serif" font-size="14.00">id :INTEGER</text>
<text text-anchor="start" x="579.5" y="-589.3" font-family="Times,serif" font-size="14.00">name :varchar</text>
<text text-anchor="start" x="579.5" y="-574.3" font-family="Times,serif" font-size="14.00">email :varchar</text>
<text text-anchor="start" x="579.5" y="-559.3" font-family="Times,serif" font-size="14.00">passcode :varchar</text>
<text text-anchor="start" x="579.5" y="-544.3" font-family="Times,serif" font-size="14.00">created_at :datetime(6)</text>
<text text-anchor="start" x="579.5" y="-529.3" font-family="Times,serif" font-size="14.00">updated_at :datetime(6)</text>
</g>
</g>
</svg>
