<?xml version="1.0" encoding="UTF-8" standalone="no"?>
<!DOCTYPE svg PUBLIC "-//W3C//DTD SVG 1.1//EN"
 "http://www.w3.org/Graphics/SVG/1.1/DTD/svg11.dtd">
<!-- Generated by graphviz version 7.0.2 (20221119.0110)
 -->
<!-- Title: models_diagram Pages: 1 -->
<svg width="768pt" height="420pt"
 viewBox="0.00 0.00 768.00 420.00" xmlns="http://www.w3.org/2000/svg" xmlns:xlink="http://www.w3.org/1999/xlink">
<g id="graph0" class="graph" transform="scale(1 1) rotate(0) translate(4 416)">
<title>models_diagram</title>
<polygon fill="none" stroke="none" points="-4,4 -4,-416 764,-416 764,4 -4,4"/>
<!-- _diagram_info -->
<g id="node1" class="node">
<title>_diagram_info</title>
<text text-anchor="start" x="8" y="-397.6" font-family="Times,serif" font-size="13.00">Models diagram</text>
<text text-anchor="start" x="8" y="-383.6" font-family="Times,serif" font-size="13.00">Date: Dec 09 2022 &#45; 16:21</text>
<text text-anchor="start" x="8" y="-369.6" font-family="Times,serif" font-size="13.00">Migration version: 20221209145650</text>
<text text-anchor="start" x="8" y="-355.6" font-family="Times,serif" font-size="13.00">Generated by RailRoady 1.6.0</text>
<text text-anchor="start" x="8" y="-341.6" font-family="Times,serif" font-size="13.00">http://railroady.prestonlee.com</text>
</g>
<!-- ApplicationRecord -->
<g id="node2" class="node">
<title>ApplicationRecord</title>
<ellipse fill="none" stroke="black" cx="309" cy="-373" rx="77.19" ry="18"/>
<text text-anchor="middle" x="309" y="-369.3" font-family="Times,serif" font-size="14.00">ApplicationRecord</text>
</g>
<!-- Comment -->
<g id="node3" class="node">
<title>Comment</title>
<ellipse fill="none" stroke="black" cx="401" cy="-192" rx="46.29" ry="18"/>
<text text-anchor="middle" x="401" y="-188.3" font-family="Times,serif" font-size="14.00">Comment</text>
</g>
<!-- Comment&#45;&gt;Comment -->
<g id="edge4" class="edge">
<title>Comment&#45;&gt;Comment</title>
<path fill="none" stroke="#87d16c" d="M452.67,-199.35C460.13,-198.17 465.15,-195.73 465.15,-192 465.15,-188.27 460.13,-185.83 452.67,-184.65"/>
<polygon fill="#87d16c" stroke="#87d16c" points="452.92,-199.33 442.59,-195.65 447.94,-199.73 442.95,-200.14 442.95,-200.14 442.95,-200.14 447.94,-199.73 443.32,-204.62 452.92,-199.33 452.92,-199.33"/>
<polygon fill="#87d16c" stroke="#87d16c" points="452.92,-184.67 443.32,-179.38 447.94,-184.27 442.95,-183.86 442.95,-183.86 442.95,-183.86 447.94,-184.27 442.59,-188.35 452.92,-184.67 452.92,-184.67"/>
</g>
<!-- User -->
<g id="node6" class="node">
<title>User</title>
<ellipse fill="none" stroke="black" cx="507" cy="-105" rx="27.1" ry="18"/>
<text text-anchor="middle" x="507" y="-101.3" font-family="Times,serif" font-size="14.00">User</text>
</g>
<!-- Comment&#45;&gt;User -->
<g id="edge3" class="edge">
<title>Comment&#45;&gt;User</title>
<path fill="none" stroke="#89ef15" d="M428.13,-169.25C444.93,-155.77 466.33,-138.61 482.6,-125.57"/>
<polygon fill="#89ef15" stroke="#89ef15" points="428.24,-169.15 417.63,-171.9 424.34,-172.28 420.44,-175.41 420.44,-175.41 420.44,-175.41 424.34,-172.28 423.26,-178.92 428.24,-169.15 428.24,-169.15"/>
<polygon fill="#89ef15" stroke="#89ef15" points="482.33,-125.79 492.94,-123.04 486.23,-122.66 490.13,-119.53 490.13,-119.53 490.13,-119.53 486.23,-122.66 487.31,-116.02 482.33,-125.79 482.33,-125.79"/>
</g>
<!-- ActsAsVotable::Vote -->
<g id="node7" class="node">
<title>ActsAsVotable::Vote</title>
<ellipse fill="none" stroke="black" cx="507" cy="-18" rx="84.49" ry="18"/>
<text text-anchor="middle" x="507" y="-14.3" font-family="Times,serif" font-size="14.00">ActsAsVotable::Vote</text>
</g>
<!-- Comment&#45;&gt;ActsAsVotable::Vote -->
<g id="edge1" class="edge">
<title>Comment&#45;&gt;ActsAsVotable::Vote</title>
<path fill="none" stroke="#c6e79e" d="M357.7,-175.85C312.28,-157.54 251.07,-124.48 279,-87 297.53,-62.14 372.75,-43.05 431.79,-31.51"/>
<polygon fill="#c6e79e" stroke="#c6e79e" points="357.52,-175.78 365.19,-183.61 362.17,-177.6 366.83,-179.42 366.83,-179.42 366.83,-179.42 362.17,-177.6 368.47,-175.23 357.52,-175.78 357.52,-175.78"/>
<polygon fill="#c6e79e" stroke="#c6e79e" points="431.67,-31.54 442.33,-34.08 436.58,-30.6 441.49,-29.66 441.49,-29.66 441.49,-29.66 436.58,-30.6 440.64,-25.24 431.67,-31.54 431.67,-31.54"/>
<text text-anchor="middle" x="305" y="-101.3" font-family="Times,serif" font-size="14.00">votes_for</text>
</g>
<!-- Commentable -->
<g id="node8" class="node">
<title>Commentable</title>
<ellipse fill="none" stroke="black" cx="401" cy="-105" rx="61.19" ry="18"/>
<text text-anchor="middle" x="401" y="-101.3" font-family="Times,serif" font-size="14.00">Commentable</text>
</g>
<!-- Comment&#45;&gt;Commentable -->
<g id="edge2" class="edge">
<title>Comment&#45;&gt;Commentable</title>
<path fill="none" stroke="#0b6bb5" d="M401,-163.8C401,-154.1 401,-143.16 401,-133.43"/>
<polygon fill="#0b6bb5" stroke="#0b6bb5" points="401,-163.8 396.5,-173.8 401,-168.8 401,-173.8 401,-173.8 401,-173.8 401,-168.8 405.5,-173.8 401,-163.8 401,-163.8"/>
<polygon fill="#0b6bb5" stroke="#0b6bb5" points="401,-133.47 405.5,-123.47 401,-128.47 401,-123.47 401,-123.47 401,-123.47 401,-128.47 396.5,-123.47 401,-133.47 401,-133.47"/>
</g>
<!-- Course -->
<g id="node4" class="node">
<title>Course</title>
<ellipse fill="none" stroke="black" cx="440" cy="-373" rx="36" ry="18"/>
<text text-anchor="middle" x="440" y="-369.3" font-family="Times,serif" font-size="14.00">Course</text>
</g>
<!-- Course&#45;&gt;Comment -->
<g id="edge6" class="edge">
<title>Course&#45;&gt;Comment</title>
<path fill="none" stroke="#adccab" d="M434.15,-345.16C426.8,-311.44 414.27,-253.89 406.9,-220.06"/>
<polygon fill="#adccab" stroke="#adccab" points="434.13,-345.07 431.86,-355.79 435.2,-349.95 436.26,-354.84 436.26,-354.84 436.26,-354.84 435.2,-349.95 440.66,-353.88 434.13,-345.07 434.13,-345.07"/>
<polygon fill="#adccab" stroke="#adccab" points="406.91,-220.15 409.18,-209.42 405.85,-215.26 404.79,-210.37 404.79,-210.37 404.79,-210.37 405.85,-215.26 400.39,-211.33 406.91,-220.15 406.91,-220.15"/>
</g>
<!-- Post -->
<g id="node5" class="node">
<title>Post</title>
<ellipse fill="none" stroke="black" cx="493" cy="-279" rx="27" ry="18"/>
<text text-anchor="middle" x="493" y="-275.3" font-family="Times,serif" font-size="14.00">Post</text>
</g>
<!-- Course&#45;&gt;Post -->
<g id="edge5" class="edge">
<title>Course&#45;&gt;Post</title>
<path fill="none" stroke="#d838b9" d="M454.34,-347.11C461.9,-333.99 471.14,-317.95 478.69,-304.84"/>
<polygon fill="#d838b9" stroke="#d838b9" points="454.47,-346.89 445.58,-353.31 451.97,-351.22 449.48,-355.55 449.48,-355.55 449.48,-355.55 451.97,-351.22 453.37,-357.8 454.47,-346.89 454.47,-346.89"/>
<polygon fill="#d838b9" stroke="#d838b9" points="478.61,-304.97 487.51,-298.55 481.11,-300.64 483.61,-296.31 483.61,-296.31 483.61,-296.31 481.11,-300.64 479.71,-294.06 478.61,-304.97 478.61,-304.97"/>
</g>
<!-- Post&#45;&gt;Comment -->
<g id="edge9" class="edge">
<title>Post&#45;&gt;Comment</title>
<path fill="none" stroke="#edaebd" d="M470.84,-257.52C457.13,-244.86 439.53,-228.6 425.43,-215.57"/>
<polygon fill="#edaebd" stroke="#edaebd" points="470.46,-257.18 474.75,-267.27 474.14,-260.57 477.81,-263.96 477.81,-263.96 477.81,-263.96 474.14,-260.57 480.86,-260.66 470.46,-257.18 470.46,-257.18"/>
<polygon fill="#edaebd" stroke="#edaebd" points="425.76,-215.87 421.47,-205.78 422.09,-212.48 418.41,-209.09 418.41,-209.09 418.41,-209.09 422.09,-212.48 415.36,-212.39 425.76,-215.87 425.76,-215.87"/>
</g>
<!-- Post&#45;&gt;User -->
<g id="edge8" class="edge">
<title>Post&#45;&gt;User</title>
<path fill="none" stroke="#0952fa" d="M495.22,-250.78C497.84,-218.49 502.2,-164.99 504.81,-132.86"/>
<polygon fill="#0952fa" stroke="#0952fa" points="495.23,-250.59 489.93,-260.2 494.83,-255.58 494.42,-260.56 494.42,-260.56 494.42,-260.56 494.83,-255.58 498.9,-260.93 495.23,-250.59 495.23,-250.59"/>
<polygon fill="#0952fa" stroke="#0952fa" points="504.79,-133.2 510.08,-123.59 505.19,-128.21 505.6,-123.23 505.6,-123.23 505.6,-123.23 505.19,-128.21 501.11,-122.86 504.79,-133.2 504.79,-133.2"/>
</g>
<!-- Post&#45;&gt;ActsAsVotable::Vote -->
<g id="edge7" class="edge">
<title>Post&#45;&gt;ActsAsVotable::Vote</title>
<path fill="none" stroke="#a66222" d="M529.44,-274.3C563.32,-269.92 614.63,-260.83 656,-243 679.77,-232.75 691.95,-232.91 704,-210 744.57,-132.88 626.57,-68.45 555.91,-37.95"/>
<polygon fill="#a66222" stroke="#a66222" points="529.87,-274.25 519.4,-271 524.91,-274.86 519.94,-275.46 519.94,-275.46 519.94,-275.46 524.91,-274.86 520.49,-279.93 529.87,-274.25 529.87,-274.25"/>
<polygon fill="#a66222" stroke="#a66222" points="556.32,-38.13 548.87,-30.08 551.72,-36.18 547.12,-34.23 547.12,-34.23 547.12,-34.23 551.72,-36.18 545.36,-38.37 556.32,-38.13 556.32,-38.13"/>
<text text-anchor="middle" x="734" y="-144.8" font-family="Times,serif" font-size="14.00">votes_for</text>
</g>
<!-- ActionText::RichText -->
<g id="node9" class="node">
<title>ActionText::RichText</title>
<ellipse fill="none" stroke="black" cx="608" cy="-192" rx="87.18" ry="18"/>
<text text-anchor="middle" x="608" y="-188.3" font-family="Times,serif" font-size="14.00">ActionText::RichText</text>
</g>
<!-- Post&#45;&gt;ActionText::RichText -->
<g id="edge10" class="edge">
<title>Post&#45;&gt;ActionText::RichText</title>
<path fill="none" stroke="#00ecee" d="M518.25,-259.34C535.73,-246.42 559.1,-229.15 577.61,-215.47"/>
<polygon fill="#00ecee" stroke="#00ecee" points="518.51,-259.15 507.79,-261.47 514.49,-262.12 510.47,-265.09 510.47,-265.09 510.47,-265.09 514.49,-262.12 513.14,-268.71 518.51,-259.15 518.51,-259.15"/>
<polygon fill="#00ecee" stroke="#00ecee" points="577.17,-215.79 587.88,-213.46 581.19,-212.82 585.21,-209.85 585.21,-209.85 585.21,-209.85 581.19,-212.82 582.53,-206.23 577.17,-215.79 577.17,-215.79"/>
<text text-anchor="middle" x="604.5" y="-231.8" font-family="Times,serif" font-size="14.00">rich_text_content</text>
</g>
<!-- User&#45;&gt;ActsAsVotable::Vote -->
<g id="edge11" class="edge">
<title>User&#45;&gt;ActsAsVotable::Vote</title>
<path fill="none" stroke="#ebf0fd" d="M507,-76.8C507,-67.1 507,-56.16 507,-46.43"/>
<polygon fill="#ebf0fd" stroke="#ebf0fd" points="507,-76.8 502.5,-86.8 507,-81.8 507,-86.8 507,-86.8 507,-86.8 507,-81.8 511.5,-86.8 507,-76.8 507,-76.8"/>
<polygon fill="#ebf0fd" stroke="#ebf0fd" points="507,-46.47 511.5,-36.47 507,-41.47 507,-36.47 507,-36.47 507,-36.47 507,-41.47 502.5,-36.47 507,-46.47 507,-46.47"/>
<text text-anchor="middle" x="521.5" y="-57.8" font-family="Times,serif" font-size="14.00">votes</text>
</g>
</g>
</svg>
