<?xml version="1.0" encoding="UTF-8" standalone="no"?>
<!DOCTYPE svg PUBLIC "-//W3C//DTD SVG 1.1//EN"
 "http://www.w3.org/Graphics/SVG/1.1/DTD/svg11.dtd">
<!-- Generated by graphviz version 7.0.2 (20221119.0110)
 -->
<!-- Title: models_diagram Pages: 1 -->
<svg width="693pt" height="319pt"
 viewBox="0.00 0.00 692.59 319.00" xmlns="http://www.w3.org/2000/svg" xmlns:xlink="http://www.w3.org/1999/xlink">
<g id="graph0" class="graph" transform="scale(1 1) rotate(0) translate(4 315)">
<title>models_diagram</title>
<polygon fill="none" stroke="none" points="-4,4 -4,-315 688.59,-315 688.59,4 -4,4"/>
<!-- _diagram_info -->
<g id="node1" class="node">
<title>_diagram_info</title>
<text text-anchor="start" x="8" y="-296.6" font-family="Times,serif" font-size="13.00">Models diagram</text>
<text text-anchor="start" x="8" y="-282.6" font-family="Times,serif" font-size="13.00">Date: Nov 29 2022 &#45; 10:26</text>
<text text-anchor="start" x="8" y="-268.6" font-family="Times,serif" font-size="13.00">Migration version: 20221121073745</text>
<text text-anchor="start" x="8" y="-254.6" font-family="Times,serif" font-size="13.00">Generated by RailRoady 1.6.0</text>
<text text-anchor="start" x="8" y="-240.6" font-family="Times,serif" font-size="13.00">http://railroady.prestonlee.com</text>
</g>
<!-- ApplicationRecord -->
<g id="node2" class="node">
<title>ApplicationRecord</title>
<ellipse fill="none" stroke="black" cx="308.5" cy="-272" rx="77.19" ry="18"/>
<text text-anchor="middle" x="308.5" y="-268.3" font-family="Times,serif" font-size="14.00">ApplicationRecord</text>
</g>
<!-- Comment -->
<g id="node3" class="node">
<title>Comment</title>
<ellipse fill="none" stroke="black" cx="389.5" cy="-178" rx="46.29" ry="18"/>
<text text-anchor="middle" x="389.5" y="-174.3" font-family="Times,serif" font-size="14.00">Comment</text>
</g>
<!-- NestedComment -->
<g id="node5" class="node">
<title>NestedComment</title>
<ellipse fill="none" stroke="black" cx="290.5" cy="-105" rx="70.69" ry="18"/>
<text text-anchor="middle" x="290.5" y="-101.3" font-family="Times,serif" font-size="14.00">NestedComment</text>
</g>
<!-- Comment&#45;&gt;NestedComment -->
<g id="edge3" class="edge">
<title>Comment&#45;&gt;NestedComment</title>
<path fill="none" stroke="#ad9aa2" d="M360.06,-155.88C347.79,-147.09 333.55,-136.87 321.15,-127.98"/>
<polygon fill="#ad9aa2" stroke="#ad9aa2" points="359.89,-155.77 365.4,-165.25 363.96,-158.68 368.02,-161.59 368.02,-161.59 368.02,-161.59 363.96,-158.68 370.64,-157.94 359.89,-155.77 359.89,-155.77"/>
<polygon fill="#ad9aa2" stroke="#ad9aa2" points="321.44,-128.19 315.94,-118.71 317.38,-125.28 313.32,-122.36 313.32,-122.36 313.32,-122.36 317.38,-125.28 310.69,-126.02 321.44,-128.19 321.44,-128.19"/>
</g>
<!-- Post -->
<g id="node6" class="node">
<title>Post</title>
<ellipse fill="none" stroke="black" cx="463.5" cy="-105" rx="27" ry="18"/>
<text text-anchor="middle" x="463.5" y="-101.3" font-family="Times,serif" font-size="14.00">Post</text>
</g>
<!-- Comment&#45;&gt;Post -->
<g id="edge1" class="edge">
<title>Comment&#45;&gt;Post</title>
<path fill="none" stroke="#abd846" d="M413.25,-154.21C422.37,-145.46 432.73,-135.52 441.67,-126.95"/>
<polygon fill="#abd846" stroke="#abd846" points="413.51,-153.97 403.18,-157.64 409.9,-157.43 406.29,-160.89 406.29,-160.89 406.29,-160.89 409.9,-157.43 409.41,-164.14 413.51,-153.97 413.51,-153.97"/>
<polygon fill="#abd846" stroke="#abd846" points="441.56,-127.05 451.89,-123.37 445.17,-123.59 448.78,-120.13 448.78,-120.13 448.78,-120.13 445.17,-123.59 445.66,-116.88 441.56,-127.05 441.56,-127.05"/>
</g>
<!-- Rating -->
<g id="node7" class="node">
<title>Rating</title>
<ellipse fill="none" stroke="black" cx="386.5" cy="-18" rx="34.39" ry="18"/>
<text text-anchor="middle" x="386.5" y="-14.3" font-family="Times,serif" font-size="14.00">Rating</text>
</g>
<!-- Comment&#45;&gt;Rating -->
<g id="edge2" class="edge">
<title>Comment&#45;&gt;Rating</title>
<path fill="none" stroke="#e6f7dd" d="M388.99,-150.02C388.44,-121 387.57,-75.12 387.01,-46.07"/>
<polygon fill="#e6f7dd" stroke="#e6f7dd" points="388.98,-149.79 384.67,-159.88 389.08,-154.79 389.17,-159.79 389.17,-159.79 389.17,-159.79 389.08,-154.79 393.67,-159.7 388.98,-149.79 388.98,-149.79"/>
<polygon fill="#e6f7dd" stroke="#e6f7dd" points="387.02,-46.19 391.33,-36.1 386.92,-41.19 386.83,-36.19 386.83,-36.19 386.83,-36.19 386.92,-41.19 382.33,-36.27 387.02,-46.19 387.02,-46.19"/>
</g>
<!-- Course -->
<g id="node4" class="node">
<title>Course</title>
<ellipse fill="none" stroke="black" cx="439.5" cy="-272" rx="36" ry="18"/>
<text text-anchor="middle" x="439.5" y="-268.3" font-family="Times,serif" font-size="14.00">Course</text>
</g>
<!-- Course&#45;&gt;Comment -->
<g id="edge5" class="edge">
<title>Course&#45;&gt;Comment</title>
<path fill="none" stroke="#590677" d="M425.58,-245.4C418.7,-232.73 410.41,-217.48 403.52,-204.79"/>
<polygon fill="#590677" stroke="#590677" points="425.55,-245.34 426.38,-256.27 427.94,-249.73 430.33,-254.13 430.33,-254.13 430.33,-254.13 427.94,-249.73 434.28,-251.98 425.55,-245.34 425.55,-245.34"/>
<polygon fill="#590677" stroke="#590677" points="403.56,-204.87 402.74,-193.93 401.17,-200.47 398.78,-196.08 398.78,-196.08 398.78,-196.08 401.17,-200.47 394.83,-198.23 403.56,-204.87 403.56,-204.87"/>
</g>
<!-- Course&#45;&gt;Post -->
<g id="edge4" class="edge">
<title>Course&#45;&gt;Post</title>
<path fill="none" stroke="#cdd166" d="M443.45,-243.87C447.91,-213.2 455.13,-163.56 459.58,-132.95"/>
<polygon fill="#cdd166" stroke="#cdd166" points="443.46,-243.76 437.57,-253.01 442.74,-248.71 442.02,-253.65 442.02,-253.65 442.02,-253.65 442.74,-248.71 446.48,-254.3 443.46,-243.76 443.46,-243.76"/>
<polygon fill="#cdd166" stroke="#cdd166" points="459.54,-133.26 465.43,-124.01 460.25,-128.31 460.97,-123.36 460.97,-123.36 460.97,-123.36 460.25,-128.31 456.52,-122.71 459.54,-133.26 459.54,-133.26"/>
</g>
<!-- Post&#45;&gt;Rating -->
<g id="edge7" class="edge">
<title>Post&#45;&gt;Rating</title>
<path fill="none" stroke="#7f7dbd" d="M443.49,-81.92C432.41,-69.68 418.64,-54.48 407.42,-42.09"/>
<polygon fill="#7f7dbd" stroke="#7f7dbd" points="443.37,-81.78 446.75,-92.22 446.73,-85.49 450.09,-89.19 450.09,-89.19 450.09,-89.19 446.73,-85.49 453.42,-86.17 443.37,-81.78 443.37,-81.78"/>
<polygon fill="#7f7dbd" stroke="#7f7dbd" points="407.52,-42.2 404.14,-31.77 404.16,-38.49 400.8,-34.79 400.8,-34.79 400.8,-34.79 404.16,-38.49 397.47,-37.81 407.52,-42.2 407.52,-42.2"/>
</g>
<!-- Tag -->
<g id="node8" class="node">
<title>Tag</title>
<ellipse fill="none" stroke="black" cx="465.5" cy="-18" rx="27" ry="18"/>
<text text-anchor="middle" x="465.5" y="-14.3" font-family="Times,serif" font-size="14.00">Tag</text>
</g>
<!-- Post&#45;&gt;Tag -->
<g id="edge6" class="edge">
<title>Post&#45;&gt;Tag</title>
<path fill="none" stroke="#2c8cce" d="M464.14,-76.8C464.37,-67.1 464.63,-56.16 464.85,-46.43"/>
<polygon fill="#2c8cce" stroke="#2c8cce" points="464.14,-76.8 459.41,-86.69 464.02,-81.8 463.9,-86.8 463.9,-86.8 463.9,-86.8 464.02,-81.8 468.4,-86.9 464.14,-76.8 464.14,-76.8"/>
<polygon fill="#2c8cce" stroke="#2c8cce" points="464.85,-46.46 469.59,-36.57 464.97,-41.47 465.09,-36.47 465.09,-36.47 465.09,-36.47 464.97,-41.47 460.59,-36.36 464.85,-46.46 464.85,-46.46"/>
</g>
<!-- ActionText::RichText -->
<g id="node10" class="node">
<title>ActionText::RichText</title>
<ellipse fill="none" stroke="black" cx="597.5" cy="-18" rx="87.18" ry="18"/>
<text text-anchor="middle" x="597.5" y="-14.3" font-family="Times,serif" font-size="14.00">ActionText::RichText</text>
</g>
<!-- Post&#45;&gt;ActionText::RichText -->
<g id="edge8" class="edge">
<title>Post&#45;&gt;ActionText::RichText</title>
<path fill="none" stroke="#9c2567" d="M490.88,-86.63C511.79,-73.37 540.72,-55.01 563.18,-40.77"/>
<polygon fill="#9c2567" stroke="#9c2567" points="491.14,-86.47 480.29,-88.02 486.92,-89.14 482.7,-91.82 482.7,-91.82 482.7,-91.82 486.92,-89.14 485.11,-95.62 491.14,-86.47 491.14,-86.47"/>
<polygon fill="#9c2567" stroke="#9c2567" points="562.99,-40.89 573.84,-39.34 567.21,-38.21 571.43,-35.54 571.43,-35.54 571.43,-35.54 567.21,-38.21 569.02,-31.74 562.99,-40.89 562.99,-40.89"/>
<text text-anchor="middle" x="586" y="-57.8" font-family="Times,serif" font-size="14.00">rich_text_content</text>
</g>
<!-- User -->
<g id="node9" class="node">
<title>User</title>
<ellipse fill="none" stroke="black" cx="520.5" cy="-272" rx="27.1" ry="18"/>
<text text-anchor="middle" x="520.5" y="-268.3" font-family="Times,serif" font-size="14.00">User</text>
</g>
</g>
</svg>
