<?xml version="1.0" encoding="UTF-8" standalone="no"?>
<!DOCTYPE svg PUBLIC "-//W3C//DTD SVG 1.1//EN"
 "http://www.w3.org/Graphics/SVG/1.1/DTD/svg11.dtd">
<!-- Generated by graphviz version 7.0.2 (20221119.0110)
 -->
<!-- Title: models_diagram Pages: 1 -->
<svg width="726pt" height="784pt"
 viewBox="0.00 0.00 726.00 784.00" xmlns="http://www.w3.org/2000/svg" xmlns:xlink="http://www.w3.org/1999/xlink">
<g id="graph0" class="graph" transform="scale(1 1) rotate(0) translate(4 780)">
<title>models_diagram</title>
<polygon fill="none" stroke="none" points="-4,4 -4,-780 722,-780 722,4 -4,4"/>
<!-- _diagram_info -->
<g id="node1" class="node">
<title>_diagram_info</title>
<text text-anchor="start" x="8.5" y="-724.6" font-family="Times,serif" font-size="13.00">Models diagram</text>
<text text-anchor="start" x="8.5" y="-710.6" font-family="Times,serif" font-size="13.00">Date: Dec 06 2022 &#45; 10:50</text>
<text text-anchor="start" x="8.5" y="-696.6" font-family="Times,serif" font-size="13.00">Migration version: 20221121073745</text>
<text text-anchor="start" x="8.5" y="-682.6" font-family="Times,serif" font-size="13.00">Generated by RailRoady 1.6.0</text>
<text text-anchor="start" x="8.5" y="-668.6" font-family="Times,serif" font-size="13.00">http://railroady.prestonlee.com</text>
</g>
<!-- ApplicationRecord -->
<g id="node2" class="node">
<title>ApplicationRecord</title>
<ellipse fill="none" stroke="black" cx="309" cy="-700" rx="77.19" ry="18"/>
<text text-anchor="middle" x="309" y="-696.3" font-family="Times,serif" font-size="14.00">ApplicationRecord</text>
</g>
<!-- Comment -->
<g id="node3" class="node">
<title>Comment</title>
<path fill="none" stroke="black" d="M406.5,-277.5C406.5,-277.5 555.5,-277.5 555.5,-277.5 561.5,-277.5 567.5,-283.5 567.5,-289.5 567.5,-289.5 567.5,-386.5 567.5,-386.5 567.5,-392.5 561.5,-398.5 555.5,-398.5 555.5,-398.5 406.5,-398.5 406.5,-398.5 400.5,-398.5 394.5,-392.5 394.5,-386.5 394.5,-386.5 394.5,-289.5 394.5,-289.5 394.5,-283.5 400.5,-277.5 406.5,-277.5"/>
<text text-anchor="middle" x="481" y="-383.3" font-family="Times,serif" font-size="14.00">Comment</text>
<polyline fill="none" stroke="black" points="394.5,-375.5 567.5,-375.5"/>
<text text-anchor="start" x="402.5" y="-360.3" font-family="Times,serif" font-size="14.00">id :INTEGER</text>
<text text-anchor="start" x="402.5" y="-345.3" font-family="Times,serif" font-size="14.00">text_body :varchar</text>
<text text-anchor="start" x="402.5" y="-330.3" font-family="Times,serif" font-size="14.00">commentable_id :INTEGER</text>
<text text-anchor="start" x="402.5" y="-315.3" font-family="Times,serif" font-size="14.00">commentable_type :varchar</text>
<text text-anchor="start" x="402.5" y="-300.3" font-family="Times,serif" font-size="14.00">created_at :datetime(6)</text>
<text text-anchor="start" x="402.5" y="-285.3" font-family="Times,serif" font-size="14.00">updated_at :datetime(6)</text>
</g>
<!-- Comment&#45;&gt;Comment -->
<g id="edge3" class="edge">
<title>Comment&#45;&gt;Comment</title>
<path fill="none" stroke="#521be3" d="M576.86,-348.07C582.27,-345.63 585.5,-342.28 585.5,-338 585.5,-333.72 582.27,-330.37 576.86,-327.93"/>
<polygon fill="#521be3" stroke="#521be3" points="577.04,-348.01 566.16,-346.68 572.27,-349.5 567.49,-350.98 567.49,-350.98 567.49,-350.98 572.27,-349.5 568.83,-355.28 577.04,-348.01 577.04,-348.01"/>
<polygon fill="#521be3" stroke="#521be3" points="577.04,-327.99 568.83,-320.72 572.27,-326.5 567.49,-325.02 567.49,-325.02 567.49,-325.02 572.27,-326.5 566.16,-329.32 577.04,-327.99 577.04,-327.99"/>
</g>
<!-- Rating -->
<g id="node7" class="node">
<title>Rating</title>
<path fill="none" stroke="black" d="M302.5,-73.5C302.5,-73.5 429.5,-73.5 429.5,-73.5 435.5,-73.5 441.5,-79.5 441.5,-85.5 441.5,-85.5 441.5,-227.5 441.5,-227.5 441.5,-233.5 435.5,-239.5 429.5,-239.5 429.5,-239.5 302.5,-239.5 302.5,-239.5 296.5,-239.5 290.5,-233.5 290.5,-227.5 290.5,-227.5 290.5,-85.5 290.5,-85.5 290.5,-79.5 296.5,-73.5 302.5,-73.5"/>
<text text-anchor="middle" x="366" y="-224.3" font-family="Times,serif" font-size="14.00">Rating</text>
<polyline fill="none" stroke="black" points="290.5,-216.5 441.5,-216.5"/>
<text text-anchor="start" x="298.5" y="-201.3" font-family="Times,serif" font-size="14.00">comment_id :INTEGER</text>
<text text-anchor="start" x="298.5" y="-186.3" font-family="Times,serif" font-size="14.00">up :INTEGER</text>
<text text-anchor="start" x="298.5" y="-171.3" font-family="Times,serif" font-size="14.00">down :INTEGER</text>
<text text-anchor="start" x="298.5" y="-156.3" font-family="Times,serif" font-size="14.00">rateable_type :varchar</text>
<text text-anchor="start" x="298.5" y="-141.3" font-family="Times,serif" font-size="14.00">rateable_id :INTEGER</text>
<text text-anchor="start" x="298.5" y="-126.3" font-family="Times,serif" font-size="14.00">created_at :datetime(6)</text>
<text text-anchor="start" x="298.5" y="-111.3" font-family="Times,serif" font-size="14.00">updated_at :datetime(6)</text>
<text text-anchor="start" x="298.5" y="-96.3" font-family="Times,serif" font-size="14.00">post_id :INTEGER</text>
<text text-anchor="start" x="298.5" y="-81.3" font-family="Times,serif" font-size="14.00">id :INTEGER</text>
</g>
<!-- Comment&#45;&gt;Rating -->
<g id="edge1" class="edge">
<title>Comment&#45;&gt;Rating</title>
<path fill="none" stroke="#8c6260" d="M437.8,-269.57C433.18,-262.36 428.42,-254.93 423.67,-247.51"/>
<polygon fill="#8c6260" stroke="#8c6260" points="437.63,-269.31 439.24,-280.16 440.33,-273.52 443.03,-277.73 443.03,-277.73 443.03,-277.73 440.33,-273.52 446.82,-275.3 437.63,-269.31 437.63,-269.31"/>
<polygon fill="#8c6260" stroke="#8c6260" points="423.9,-247.88 422.3,-237.03 421.21,-243.67 418.51,-239.46 418.51,-239.46 418.51,-239.46 421.21,-243.67 414.72,-241.89 423.9,-247.88 423.9,-247.88"/>
</g>
<!-- Commentable -->
<g id="node10" class="node">
<title>Commentable</title>
<ellipse fill="none" stroke="black" cx="521" cy="-156.5" rx="61.19" ry="18"/>
<text text-anchor="middle" x="521" y="-152.8" font-family="Times,serif" font-size="14.00">Commentable</text>
</g>
<!-- Comment&#45;&gt;Commentable -->
<g id="edge2" class="edge">
<title>Comment&#45;&gt;Commentable</title>
<path fill="none" stroke="#fbe261" d="M496.31,-268.31C502.82,-239.1 510.03,-206.74 514.97,-184.57"/>
<polygon fill="#fbe261" stroke="#fbe261" points="496.38,-267.97 489.82,-276.75 495.3,-272.85 494.21,-277.73 494.21,-277.73 494.21,-277.73 495.3,-272.85 498.6,-278.71 496.38,-267.97 496.38,-267.97"/>
<polygon fill="#fbe261" stroke="#fbe261" points="514.96,-184.61 521.53,-175.83 516.05,-179.73 517.13,-174.85 517.13,-174.85 517.13,-174.85 516.05,-179.73 512.74,-173.88 514.96,-184.61 514.96,-184.61"/>
</g>
<!-- Course -->
<g id="node4" class="node">
<title>Course</title>
<path fill="none" stroke="black" d="M416.5,-624.5C416.5,-624.5 541.5,-624.5 541.5,-624.5 547.5,-624.5 553.5,-630.5 553.5,-636.5 553.5,-636.5 553.5,-763.5 553.5,-763.5 553.5,-769.5 547.5,-775.5 541.5,-775.5 541.5,-775.5 416.5,-775.5 416.5,-775.5 410.5,-775.5 404.5,-769.5 404.5,-763.5 404.5,-763.5 404.5,-636.5 404.5,-636.5 404.5,-630.5 410.5,-624.5 416.5,-624.5"/>
<text text-anchor="middle" x="479" y="-760.3" font-family="Times,serif" font-size="14.00">Course</text>
<polyline fill="none" stroke="black" points="404.5,-752.5 553.5,-752.5"/>
<text text-anchor="start" x="412.5" y="-737.3" font-family="Times,serif" font-size="14.00">updated_at :datetime(6)</text>
<text text-anchor="start" x="412.5" y="-722.3" font-family="Times,serif" font-size="14.00">title :varchar</text>
<text text-anchor="start" x="412.5" y="-707.3" font-family="Times,serif" font-size="14.00">course_code :INTEGER</text>
<text text-anchor="start" x="412.5" y="-692.3" font-family="Times,serif" font-size="14.00">description :TEXT</text>
<text text-anchor="start" x="412.5" y="-677.3" font-family="Times,serif" font-size="14.00">department :varchar</text>
<text text-anchor="start" x="412.5" y="-662.3" font-family="Times,serif" font-size="14.00">faculty :varchar</text>
<text text-anchor="start" x="412.5" y="-647.3" font-family="Times,serif" font-size="14.00">created_at :datetime(6)</text>
<text text-anchor="start" x="412.5" y="-632.3" font-family="Times,serif" font-size="14.00">id :INTEGER</text>
</g>
<!-- Course&#45;&gt;Comment -->
<g id="edge5" class="edge">
<title>Course&#45;&gt;Comment</title>
<path fill="none" stroke="#eeb805" d="M525.1,-615.28C528.72,-605.95 531.81,-596.42 534,-587 547.78,-527.69 547.45,-509.38 534,-450 530.75,-435.65 525.41,-420.98 519.34,-407.21"/>
<polygon fill="#eeb805" stroke="#eeb805" points="525.1,-615.27 517.15,-622.83 523.21,-619.9 521.31,-624.53 521.31,-624.53 521.31,-624.53 523.21,-619.9 525.48,-626.23 525.1,-615.27 525.1,-615.27"/>
<polygon fill="#eeb805" stroke="#eeb805" points="519.42,-407.39 519.35,-396.42 517.34,-402.84 515.26,-398.3 515.26,-398.3 515.26,-398.3 517.34,-402.84 511.17,-400.17 519.42,-407.39 519.42,-407.39"/>
</g>
<!-- Post -->
<g id="node6" class="node">
<title>Post</title>
<path fill="none" stroke="black" d="M221,-450.5C221,-450.5 343,-450.5 343,-450.5 349,-450.5 355,-456.5 355,-462.5 355,-462.5 355,-574.5 355,-574.5 355,-580.5 349,-586.5 343,-586.5 343,-586.5 221,-586.5 221,-586.5 215,-586.5 209,-580.5 209,-574.5 209,-574.5 209,-462.5 209,-462.5 209,-456.5 215,-450.5 221,-450.5"/>
<text text-anchor="middle" x="282" y="-571.3" font-family="Times,serif" font-size="14.00">Post</text>
<polyline fill="none" stroke="black" points="209,-563.5 355,-563.5"/>
<text text-anchor="start" x="217" y="-548.3" font-family="Times,serif" font-size="14.00">id :INTEGER</text>
<text text-anchor="start" x="217" y="-533.3" font-family="Times,serif" font-size="14.00">title :varchar</text>
<text text-anchor="start" x="217" y="-518.3" font-family="Times,serif" font-size="14.00">description :varchar</text>
<text text-anchor="start" x="217" y="-503.3" font-family="Times,serif" font-size="14.00">view :INTEGER</text>
<text text-anchor="start" x="217" y="-488.3" font-family="Times,serif" font-size="14.00">created_at :datetime(6)</text>
<text text-anchor="start" x="217" y="-473.3" font-family="Times,serif" font-size="14.00">updated_at :datetime(6)</text>
<text text-anchor="start" x="217" y="-458.3" font-family="Times,serif" font-size="14.00">course_id :INTEGER</text>
</g>
<!-- Course&#45;&gt;Post -->
<g id="edge4" class="edge">
<title>Course&#45;&gt;Post</title>
<path fill="none" stroke="#0b3120" d="M397.24,-624.5C385.62,-613.92 373.69,-603.05 362.11,-592.49"/>
<polygon fill="#0b3120" stroke="#0b3120" points="397.13,-624.4 401.49,-634.47 400.83,-627.77 404.52,-631.14 404.52,-631.14 404.52,-631.14 400.83,-627.77 407.55,-627.81 397.13,-624.4 397.13,-624.4"/>
<polygon fill="#0b3120" stroke="#0b3120" points="362.34,-592.71 357.98,-582.64 358.65,-589.34 354.95,-585.97 354.95,-585.97 354.95,-585.97 358.65,-589.34 351.92,-589.3 362.34,-592.71 362.34,-592.71"/>
</g>
<!-- NestedComment -->
<g id="node5" class="node">
<title>NestedComment</title>
<path fill="none" stroke="black" d="M385.5,-465.5C385.5,-465.5 512.5,-465.5 512.5,-465.5 518.5,-465.5 524.5,-471.5 524.5,-477.5 524.5,-477.5 524.5,-559.5 524.5,-559.5 524.5,-565.5 518.5,-571.5 512.5,-571.5 512.5,-571.5 385.5,-571.5 385.5,-571.5 379.5,-571.5 373.5,-565.5 373.5,-559.5 373.5,-559.5 373.5,-477.5 373.5,-477.5 373.5,-471.5 379.5,-465.5 385.5,-465.5"/>
<text text-anchor="middle" x="449" y="-556.3" font-family="Times,serif" font-size="14.00">NestedComment</text>
<polyline fill="none" stroke="black" points="373.5,-548.5 524.5,-548.5"/>
<text text-anchor="start" x="381.5" y="-533.3" font-family="Times,serif" font-size="14.00">id :INTEGER</text>
<text text-anchor="start" x="381.5" y="-518.3" font-family="Times,serif" font-size="14.00">text :varchar</text>
<text text-anchor="start" x="381.5" y="-503.3" font-family="Times,serif" font-size="14.00">created_at :datetime(6)</text>
<text text-anchor="start" x="381.5" y="-488.3" font-family="Times,serif" font-size="14.00">updated_at :datetime(6)</text>
<text text-anchor="start" x="381.5" y="-473.3" font-family="Times,serif" font-size="14.00">comment_id :INTEGER</text>
</g>
<!-- NestedComment&#45;&gt;Comment -->
<g id="edge6" class="edge">
<title>NestedComment&#45;&gt;Comment</title>
<path fill="none" stroke="#d5dac5" d="M459.98,-456.26C462.76,-440.75 465.76,-423.99 468.61,-408.12"/>
<polygon fill="#d5dac5" stroke="#d5dac5" points="460.02,-456.03 453.83,-465.08 459.14,-460.95 458.26,-465.87 458.26,-465.87 458.26,-465.87 459.14,-460.95 462.69,-466.66 460.02,-456.03 460.02,-456.03"/>
<polygon fill="#d5dac5" stroke="#d5dac5" points="468.59,-408.22 474.79,-399.17 469.47,-403.3 470.36,-398.37 470.36,-398.37 470.36,-398.37 469.47,-403.3 465.93,-397.58 468.59,-408.22 468.59,-408.22"/>
</g>
<!-- Post&#45;&gt;Comment -->
<g id="edge8" class="edge">
<title>Post&#45;&gt;Comment</title>
<path fill="none" stroke="#348085" d="M362.11,-447.92C368.18,-442.55 374.2,-437.2 380,-432 389.71,-423.29 399.89,-414.06 409.88,-404.92"/>
<polygon fill="#348085" stroke="#348085" points="362.47,-447.6 352,-450.84 358.72,-450.91 354.97,-454.22 354.97,-454.22 354.97,-454.22 358.72,-450.91 357.95,-457.59 362.47,-447.6 362.47,-447.6"/>
<polygon fill="#348085" stroke="#348085" points="409.75,-405.05 420.16,-401.62 413.43,-401.67 417.12,-398.3 417.12,-398.3 417.12,-398.3 413.43,-401.67 414.08,-394.98 409.75,-405.05 409.75,-405.05"/>
</g>
<!-- Post&#45;&gt;Rating -->
<g id="edge9" class="edge">
<title>Post&#45;&gt;Rating</title>
<path fill="none" stroke="#b51f89" d="M347.56,-442.01C349.21,-438.72 350.7,-435.38 352,-432 374.42,-373.94 377.63,-303.8 375.38,-248.95"/>
<polygon fill="#b51f89" stroke="#b51f89" points="347.66,-441.83 338.92,-448.46 345.27,-446.23 342.88,-450.62 342.88,-450.62 342.88,-450.62 345.27,-446.23 346.83,-452.77 347.66,-441.83 347.66,-441.83"/>
<polygon fill="#b51f89" stroke="#b51f89" points="375.4,-249.23 379.42,-239.03 375.16,-244.23 374.92,-239.24 374.92,-239.24 374.92,-239.24 375.16,-244.23 370.43,-239.45 375.4,-249.23 375.4,-249.23"/>
</g>
<!-- Tag -->
<g id="node8" class="node">
<title>Tag</title>
<path fill="none" stroke="black" d="M12,-292.5C12,-292.5 134,-292.5 134,-292.5 140,-292.5 146,-298.5 146,-304.5 146,-304.5 146,-371.5 146,-371.5 146,-377.5 140,-383.5 134,-383.5 134,-383.5 12,-383.5 12,-383.5 6,-383.5 0,-377.5 0,-371.5 0,-371.5 0,-304.5 0,-304.5 0,-298.5 6,-292.5 12,-292.5"/>
<text text-anchor="middle" x="73" y="-368.3" font-family="Times,serif" font-size="14.00">Tag</text>
<polyline fill="none" stroke="black" points="0,-360.5 146,-360.5"/>
<text text-anchor="start" x="8" y="-345.3" font-family="Times,serif" font-size="14.00">id :INTEGER</text>
<text text-anchor="start" x="8" y="-330.3" font-family="Times,serif" font-size="14.00">tag_name :varchar</text>
<text text-anchor="start" x="8" y="-315.3" font-family="Times,serif" font-size="14.00">created_at :datetime(6)</text>
<text text-anchor="start" x="8" y="-300.3" font-family="Times,serif" font-size="14.00">updated_at :datetime(6)</text>
</g>
<!-- Post&#45;&gt;Tag -->
<g id="edge7" class="edge">
<title>Post&#45;&gt;Tag</title>
<path fill="none" stroke="#3f36c8" d="M201.63,-448.86C178.57,-429.16 153.85,-408.05 132.3,-389.65"/>
<polygon fill="#3f36c8" stroke="#3f36c8" points="201.59,-448.83 206.27,-458.74 205.39,-452.07 209.2,-455.32 209.2,-455.32 209.2,-455.32 205.39,-452.07 212.12,-451.9 201.59,-448.83 201.59,-448.83"/>
<polygon fill="#3f36c8" stroke="#3f36c8" points="132.43,-389.76 127.75,-379.84 128.63,-386.51 124.82,-383.26 124.82,-383.26 124.82,-383.26 128.63,-386.51 121.9,-386.68 132.43,-389.76 132.43,-389.76"/>
</g>
<!-- ActionText::RichText -->
<g id="node11" class="node">
<title>ActionText::RichText</title>
<ellipse fill="none" stroke="black" cx="251" cy="-338" rx="87.18" ry="18"/>
<text text-anchor="middle" x="251" y="-334.3" font-family="Times,serif" font-size="14.00">ActionText::RichText</text>
</g>
<!-- Post&#45;&gt;ActionText::RichText -->
<g id="edge10" class="edge">
<title>Post&#45;&gt;ActionText::RichText</title>
<path fill="none" stroke="#e8e34a" d="M258.74,-440.96C258.1,-437.94 257.52,-434.95 257,-432 253.13,-410.05 251.69,-384.8 251.18,-366.15"/>
<polygon fill="#e8e34a" stroke="#e8e34a" points="258.72,-440.87 256.54,-451.62 259.83,-445.75 260.93,-450.62 260.93,-450.62 260.93,-450.62 259.83,-445.75 265.32,-449.63 258.72,-440.87 258.72,-440.87"/>
<polygon fill="#e8e34a" stroke="#e8e34a" points="251.18,-366.27 255.48,-356.18 251.08,-361.27 250.98,-356.28 250.98,-356.28 250.98,-356.28 251.08,-361.27 246.48,-356.37 251.18,-366.27 251.18,-366.27"/>
<text text-anchor="middle" x="304.5" y="-420.8" font-family="Times,serif" font-size="14.00">rich_text_content</text>
</g>
<!-- Rateable -->
<g id="node12" class="node">
<title>Rateable</title>
<ellipse fill="none" stroke="black" cx="366" cy="-18" rx="41.69" ry="18"/>
<text text-anchor="middle" x="366" y="-14.3" font-family="Times,serif" font-size="14.00">Rateable</text>
</g>
<!-- Rating&#45;&gt;Rateable -->
<g id="edge11" class="edge">
<title>Rating&#45;&gt;Rateable</title>
<path fill="none" stroke="#d4749a" d="M366,-64C366,-57.67 366,-51.64 366,-46.17"/>
<polygon fill="#d4749a" stroke="#d4749a" points="366,-63.73 361.5,-73.73 366,-68.73 366,-73.73 366,-73.73 366,-73.73 366,-68.73 370.5,-73.73 366,-63.73 366,-63.73"/>
<polygon fill="#d4749a" stroke="#d4749a" points="366,-46.42 370.5,-36.42 366,-41.42 366,-36.42 366,-36.42 366,-36.42 366,-41.42 361.5,-36.42 366,-46.42 366,-46.42"/>
</g>
<!-- User -->
<g id="node9" class="node">
<title>User</title>
<path fill="none" stroke="black" d="M584,-639.5C584,-639.5 706,-639.5 706,-639.5 712,-639.5 718,-645.5 718,-651.5 718,-651.5 718,-748.5 718,-748.5 718,-754.5 712,-760.5 706,-760.5 706,-760.5 584,-760.5 584,-760.5 578,-760.5 572,-754.5 572,-748.5 572,-748.5 572,-651.5 572,-651.5 572,-645.5 578,-639.5 584,-639.5"/>
<text text-anchor="middle" x="645" y="-745.3" font-family="Times,serif" font-size="14.00">User</text>
<polyline fill="none" stroke="black" points="572,-737.5 718,-737.5"/>
<text text-anchor="start" x="580" y="-722.3" font-family="Times,serif" font-size="14.00">id :INTEGER</text>
<text text-anchor="start" x="580" y="-707.3" font-family="Times,serif" font-size="14.00">name :varchar</text>
<text text-anchor="start" x="580" y="-692.3" font-family="Times,serif" font-size="14.00">email :varchar</text>
<text text-anchor="start" x="580" y="-677.3" font-family="Times,serif" font-size="14.00">passcode :varchar</text>
<text text-anchor="start" x="580" y="-662.3" font-family="Times,serif" font-size="14.00">created_at :datetime(6)</text>
<text text-anchor="start" x="580" y="-647.3" font-family="Times,serif" font-size="14.00">updated_at :datetime(6)</text>
</g>
</g>
</svg>
